<?xml version="1.0" standalone="no"?>
<!DOCTYPE svg PUBLIC "-//W3C//DTD SVG 1.1//EN" "http://www.w3.org/Graphics/SVG/1.1/DTD/svg11.dtd" >
<svg xmlns="http://www.w3.org/2000/svg">
<metadata></metadata>
<defs>
<font id="esterebold" horiz-adv-x="639" >
<font-face units-per-em="1000" ascent="750" descent="-250" />
<missing-glyph horiz-adv-x="198" />
<glyph unicode=" "  horiz-adv-x="198" />
<glyph unicode="&#x09;" horiz-adv-x="198" />
<glyph unicode="&#xa0;" horiz-adv-x="198" />
<glyph unicode="!" horiz-adv-x="220" d="M35 0v141h143v-141h-143zM155 241h-96l-13 450h137z" />
<glyph unicode="&#x22;" horiz-adv-x="407" d="M205 692l-73 -217h-100l49 217h124zM258 692h122l-74 -217h-102z" />
<glyph unicode="#" horiz-adv-x="478" d="M350 200h81v-94h-100l-8 -38l-14 -68h-92l18 106h-43l-20 -106h-96l20 106h-73v94h90l3 15l6 28h-66v94h86l20 98h92l-17 -98h44l21 98h91l-17 -98h80v-94h-98q-1 -3 -3 -11.5t-2 -10.5h1zM218 243l-7 -43h42l5 25l4 18h-44z" />
<glyph unicode="$" horiz-adv-x="452" d="M283 0h-104v94q-75 6 -138 27v97q100 -30 180 -30q58 0 83 16q10 4 15 15v-1q5 10 5 27q0 27 -14 41l2 -2q-18 15 -52 15h-70q-82 0 -128 38q-44 41 -44 116q0 66 49 107q35 29 112 43v89h104v-88q63 -8 128 -26v-97q-98 31 -172 31q-67 0 -99 -19q-12 -5 -21 -24 q-3 -5 -3 -16q0 -26 16 -39q23 -14 58 -14h70q85 0 127 -39q46 -43 46 -116q0 -60 -46 -103q-36 -33 -104 -47v-95z" />
<glyph unicode="%" horiz-adv-x="712" d="M531 689h116l-474 -688h-113zM138 357q-44 0 -74.5 30.5t-30.5 73.5v124q0 43 31 73.5t74 30.5h50q43 0 73.5 -30.5t30.5 -73.5v-124q0 -43 -30.5 -73.5t-73.5 -30.5h-50zM118 585v-124q0 -8 6 -13.5t14 -5.5h50q8 0 13.5 5.5t5.5 13.5v124q0 7 -5.5 13t-13.5 6h-50 q-8 0 -14 -5.5t-6 -13.5zM574 334q44 0 74.5 -31t30.5 -74v-123q0 -44 -30.5 -74.5t-74.5 -30.5h-50q-44 0 -74.5 30.5t-30.5 74.5v123q0 43 30.5 74t74.5 31h50zM594 106v123q0 8 -6 14t-14 6h-50q-8 0 -14 -6t-6 -14v-123q0 -8 6 -14t14 -6h50q8 0 14 6t6 14z" />
<glyph unicode="&#x26;" horiz-adv-x="581" d="M56 298q18 32 53 53q-38 23 -54 50q-21 40 -21 91q0 64 17 101q22 51 79 77q69 29 142 29q74 0 169 -24v-90q-113 31 -164 31q-66 0 -111 -30l1 1q-16 -11 -25 -30q-8 -16 -8 -62q0 -24 6 -48q8 -24 35 -41l-1 1q26 -15 66 -15h164v78h56q20 0 30 -8.5t12 -17.5t2 -24 v-28h57v-85h-57v-74q0 -68 -14 -102q-22 -66 -81 -100q-58 -32 -144 -32q-109 0 -169 45q-31 24 -45 61q-17 36 -17 86q0 70 22 107zM179 100h-1q33 -15 82 -15q29 0 67 9q39 14 57 45q20 33 20 96v72h-163q-25 0 -51 -7q-27 -8 -40 -32q-16 -26 -16 -74q0 -30 7 -53l-1 1 q12 -27 39 -42z" />
<glyph unicode="'" horiz-adv-x="212" d="M196 692l-73 -217h-100l49 217h124z" />
<glyph unicode="(" horiz-adv-x="227" d="M201 -85h-90q-38 60 -63.5 194t-25.5 219q0 91 26 228.5t63 190.5h91q-28 -60 -51 -198.5t-23 -220.5q0 -79 22 -214t51 -199z" />
<glyph unicode=")" horiz-adv-x="226" d="M26 746h90q38 -60 63.5 -194t25.5 -219q0 -91 -26 -228.5t-63 -190.5h-91q28 60 51 198.5t23 220.5q0 79 -22 214t-51 199z" />
<glyph unicode="*" horiz-adv-x="313" d="M235 457l-38 27v-54h-80v55l-42 -28l-51 62l59 41l-27 21l-32 23l45 68l48 -33v53h80v-57l41 28l54 -61l-62 -42l60 -40q-31 -39 -55 -63z" />
<glyph unicode="+" horiz-adv-x="297" d="M279 187h-80v-81h-99v81h-83v101h83v81h99v-81h80v-101z" />
<glyph unicode="," horiz-adv-x="214" d="M75 118h123l-75 -218h-100z" />
<glyph unicode="-" horiz-adv-x="328" d="M289 188h-249v101h249v-101z" />
<glyph unicode="." horiz-adv-x="200" d="M40 0v119h121v-119h-121z" />
<glyph unicode="/" horiz-adv-x="340" d="M6 0l229 670h99l-232 -670h-96z" />
<glyph unicode="0" horiz-adv-x="509" d="M448 560q31 -77 31 -201q0 -182 -59 -272v1q-25 -44 -74 -73q-43 -23 -98 -23q-49 0 -91 22q-60 38 -94 118q-34 84 -34 217q0 162 62 259q29 42 73 69q42 23 94 23q54 0 97 -23q64 -38 93 -117zM355 179q19 63 19 176q0 130 -32 198q-16 31 -38 47q-22 15 -50 15 t-47 -16q-31 -20 -52 -81q-22 -64 -22 -169q0 -137 36 -211q22 -35 38 -47q19 -15 46 -15q29 0 46 14q36 23 56 89z" />
<glyph unicode="1" horiz-adv-x="280" d="M139 1v585l-107 -56l-27 80l150 80h43q43 0 43 -40v-649h-102z" />
<glyph unicode="2" horiz-adv-x="484" d="M457 1h-426v39q0 26 19 45l31 30q104 98 201 227q55 76 55 144q0 50 -25 81v-1q-17 19 -36 25q-25 11 -57 11q-56 0 -139 -56q-26 50 -34 77q97 69 191 69q98 0 155 -62q48 -54 48 -132q0 -84 -68 -185q-91 -127 -154 -189l-33 -32h272v-91z" />
<glyph unicode="3" horiz-adv-x="474" d="M205 -10q-83 0 -177 47l31 84q84 -42 144 -42q73 0 106 39q30 31 30 75v3q0 40 -14 65q-20 35 -54 51q-38 17 -87 17h-58v47q0 13 10 25q12 10 26 10h22q51 0 89 26q22 15 31 31q13 26 13 46q0 44 -23 70q-25 25 -80 25q-57 0 -137 -46l-9 36v-1l-9 22.5t-9 23.5 q30 20 85 41q47 14 95 14q93 0 143 -50v1q49 -46 49 -123q0 -55 -42 -103q-28 -30 -68 -52q48 -19 77 -45q58 -53 58 -133q0 -85 -63 -143q-64 -61 -179 -61z" />
<glyph unicode="4" horiz-adv-x="497" d="M397 276h79v-87h-79v-188h-101v188h-291v68l285 436h107v-417zM296 276v291l-178 -291h178z" />
<glyph unicode="5" horiz-adv-x="468" d="M194 -10q-95 0 -168 44q14 59 18 86q90 -41 149 -41t101 36q42 34 42 95q-2 64 -41 97q-40 38 -107 38l-38 -1h-47q-15 0 -25.5 10.5t-10.5 27.5q24 202 32 258q5 23 17 35q17 17 42 17h270v-91h-245q-3 -25 -10.5 -83t-11.5 -88q18 1 42 1q63 0 121 -25t89 -77 q28 -52 28 -108q0 -100 -70 -165v1q-69 -67 -177 -67z" />
<glyph unicode="6" horiz-adv-x="497" d="M25 272q1 104 32 186t82 133q86 86 191 98q27 4 89 4v-87q-50 0 -77 -4q-71 -10 -129 -69q-33 -33 -66 -123q52 28 128 28q85 0 144 -62q53 -59 53 -145q0 -99 -62 -169q-66 -73 -165 -73q-101 0 -163 80q-57 80 -57 203zM254 74q49 0 81 40h-1q34 42 34 109q0 56 -31 95 q-32 35 -82 35q-37 0 -68 -18t-49 -45q-7 -16 -7 -29q0 -89 30 -136q16 -26 36 -38l-1 1q30 -14 56 -14h2z" />
<glyph unicode="7" horiz-adv-x="474" d="M339 604h-214v-60h-93v149h365q34 0 49.5 -19t5.5 -49l-170 -387l-109 -237h-109z" />
<glyph unicode="8" horiz-adv-x="506" d="M73 298v1q26 29 72 55q-41 24 -66 61q-27 43 -27 96q0 82 61 138q60 50 145 50q88 0 146 -53q50 -50 50 -120q0 -56 -32 -103q-24 -31 -66 -59q41 -23 77 -60q43 -50 45 -116q-1 -86 -70 -145q-65 -53 -156 -53q-97 0 -163 54q-61 51 -61 131q0 70 45 123zM166 105 q34 -34 87 -34t87 32v-1q32 32 32 77q0 56 -36 90v-1q-28 26 -96 48q-50 -16 -78 -49t-28 -77v-7q0 -46 32 -78zM183 439v-1q27 -27 83 -40q40 14 60 39q26 29 26 80q0 47 -21 72q-30 30 -76 30q-49 0 -77 -28h1q-25 -25 -25 -72q0 -54 29 -80z" />
<glyph unicode="9" horiz-adv-x="498" d="M473 406q0 -198 -113 -311q-75 -75 -191 -90h1q-22 -4 -91 -4v86q43 0 78 5h-1q78 14 129 62v-1q41 42 68 117q-56 -29 -130 -29q-88 0 -143 62v-1q-54 59 -54 146q0 104 60 175q67 72 167 72q103 0 163 -79q57 -80 57 -210zM245 611q-50 0 -82 -41q-33 -39 -33 -114 q0 -62 29 -96v1q33 -35 83 -35q79 -1 117 63q8 16 8 28q0 97 -31 144q-14 24 -37 36q-23 14 -52 14h-2z" />
<glyph unicode=":" horiz-adv-x="200" d="M40 412h121v-120h-121v120zM40 0v119h121v-119h-121z" />
<glyph unicode=";" horiz-adv-x="219" d="M75 118h123l-42 -123q-16 -43 -31 -95h-103l21 90l10 40zM189 412v-120h-120v120h120z" />
<glyph unicode="&#x3c;" horiz-adv-x="431" d="M326 65l-323 230l323 229l74 -73l-223 -155l224 -156z" />
<glyph unicode="=" horiz-adv-x="340" d="M301 267h-261v100h261v-100zM40 106v100h261v-100h-261z" />
<glyph unicode="&#x3e;" horiz-adv-x="430" d="M104 525l323 -230l-323 -229l-74 73l223 155l-224 156z" />
<glyph unicode="?" horiz-adv-x="408" d="M130 0v141h142v-141h-142zM151 241v163h131v127q0 20 -7 34q-5 16 -21 25q-14 7 -48 7h-6q-39 0 -61 -14l2 1q-20 -17 -20 -53v-44h-103v52q3 75 50 113t127 38h15q83 0 127 -41q48 -42 48 -118v-210h-121v-80h-113z" />
<glyph unicode="@" horiz-adv-x="576" d="M289 500q260 0 260 -252q0 -200 -130 -200q-68 0 -91 66q-18 -6 -48 -6q-94 0 -94 82q0 80 101 80q28 0 42 -2v23h-126v61h150q42 0 42 -46v-164q0 -8 1.5 -13t8 -8.5t17.5 -3.5q40 0 40 131q0 175 -170 175q-67 0 -106 -24l-11 -6q-59 -44 -59 -145q0 -179 178 -182v-76 q-264 5 -264 258q0 252 259 252zM253 191q0 -22 27 -22q25 0 49 11v29q-13 1 -42 1q-34 0 -34 -19z" />
<glyph unicode="A" d="M497 0l-55 188h-244l-56 -188h-109q189 621 195 643q17 48 53 48h78q38 0 53 -48l194 -643h-109zM226 282h187q-24 84 -36 121l-57 191z" />
<glyph unicode="B" horiz-adv-x="606" d="M546 484q0 -77 -64 -133q64 -66 64 -146v-8q0 -42 -6.5 -72.5t-25.5 -61t-60.5 -47t-104.5 -16.5h-229q-49 0 -49 54v584q0 53 49 53h204q114 0 168 -45t54 -150v-12zM443 182v23q0 40 -32.5 70.5t-79.5 30.5h-158v-213h165q38 0 61.5 8.5t32 25.5t10 26.5t1.5 28.5z M443 483v27q0 90 -129 90h-141v-201h158q48 0 80 23t32 61z" />
<glyph unicode="C" horiz-adv-x="620" d="M452 230h103v-15q0 -34 -0.5 -50.5t-3.5 -44t-9.5 -41.5t-19 -32t-31 -26t-46.5 -14.5t-65 -6.5h-170q-20 0 -42 7.5t-46 25t-40 54t-16 86.5v341q0 84 47.5 130.5t129.5 46.5h159q90 0 121.5 -50.5t31.5 -174.5h-103q0 33 -0.5 48t-4.5 35.5t-11.5 29t-22.5 15t-37 6.5 h-117q-89 0 -89 -85v-342q0 -40 16.5 -60t58.5 -20h119q33 0 51.5 5t26 20t9 27t1.5 42v43z" />
<glyph unicode="D" horiz-adv-x="631" d="M422 691q20 0 42 -7.5t46 -25t40 -54t16 -86.5v-340q0 -85 -47.5 -131.5t-128.5 -46.5h-270q-49 0 -49 54v584q0 53 49 53h302zM463 177v341q0 40 -17 61t-59 21h-214v-507h202q88 0 88 84z" />
<glyph unicode="E" horiz-adv-x="562" d="M515 600h-340v-207h286v-92h-286v-208h340v-93h-394q-50 0 -50 54v584q0 53 50 53h394v-91z" />
<glyph unicode="F" horiz-adv-x="520" d="M514 600h-341v-217h293v-94h-293v-289h-102v638q0 53 49 53h394v-91z" />
<glyph unicode="G" horiz-adv-x="615" d="M290 286v93h200q30 0 47.5 -17.5t17.5 -46.5v-137q0 -85 -47.5 -131.5t-128.5 -46.5h-169q-20 0 -42 7.5t-46 25t-40 54t-16 86.5v341q0 84 47.5 130.5t129.5 46.5h167q20 0 42 -8.5t46.5 -29t40.5 -63t16 -100.5h-103q0 54 -17 82t-60 28h-117q-88 0 -88 -85v-342 q0 -40 16.5 -60t58.5 -20h118q89 0 89 84v109h-162z" />
<glyph unicode="H" horiz-adv-x="670" d="M599 691v-691h-103v301h-278v-301h-104v600h-58v91h105q33 0 45 -13.5t12 -43.5v-241h278v298h103z" />
<glyph unicode="I" horiz-adv-x="260" d="M189 691v-691h-102v691h102z" />
<glyph unicode="J" horiz-adv-x="427" d="M366 691v-518q0 -50 -16 -86.5t-42.5 -54t-53.5 -25t-56 -7.5h-47q-47 0 -114 31l47 89q49 -27 83 -27h19q43 0 59.5 20t16.5 60v427h-88v91h192z" />
<glyph unicode="K" horiz-adv-x="706" d="M536 0l-193 334q-18 -22 -55 -69t-57 -72v-133q0 -27 -15 -43.5t-39 -16.5h-109v93h60v507h-60v91h110q53 0 53 -56v-284q24 30 123.5 153t152.5 187h129l-227 -277l96 -163l148 -251h-117z" />
<glyph unicode="L" horiz-adv-x="566" d="M217 93h342v-93h-396q-50 0 -50 54v546h-59v91h109q32 0 43 -14.5t11 -41.5v-542z" />
<glyph unicode="M" horiz-adv-x="728" d="M625 691q50 0 50 -53v-638h-104v425l-38 -86l-38 -86l-58 -132q-16 -33 -43 -35h-28q-24 3 -40 33l-136 304v-423h-102v638q0 53 48 53h47l199 -451l197 451h46z" />
<glyph unicode="N" horiz-adv-x="660" d="M590 691v-637q0 -54 -49 -54h-42l-326 490v-490h-102v638q0 27 10 40t37 13h46l323 -493v493h103z" />
<glyph unicode="O" horiz-adv-x="627" d="M419 691q20 0 42 -7.5t46.5 -25t40 -54t15.5 -86.5v-340q0 -85 -47.5 -131.5t-129.5 -46.5h-175q-20 0 -42 7.5t-46.5 25t-40 54t-15.5 86.5v341q0 84 47.5 130.5t128.5 46.5h176zM460 177v341q0 40 -17 61t-59 21h-125q-88 0 -88 -85v-342q0 -40 16.5 -60t58.5 -20h125 q89 0 89 84z" />
<glyph unicode="P" horiz-adv-x="561" d="M435 293l3 2q-46 -22 -115 -22h-157v-273h-102v638q0 53 49 53h204q115 0 168.5 -44.5t53.5 -150.5v-45q0 -53 -29.5 -93.5t-74.5 -64.5zM436 450v60q0 90 -130 90h-140v-234h157q48 0 80.5 23t32.5 61z" />
<glyph unicode="Q" horiz-adv-x="640" d="M594 24l-66 -70l-64 65q-43 -19 -85 -19h-169q-20 0 -42 7.5t-46.5 25t-40 54t-15.5 86.5v341q0 84 47 130.5t128 46.5h170q20 0 41.5 -7.5t46 -25t40 -54t15.5 -86.5v-340q0 -56 -19 -94l18 -19zM362 93q12 0 26 2q-18 19 -53 53t-44 43l69 68l90 -91v350 q0 41 -16.5 61.5t-58.5 20.5h-119q-43 0 -65 -22.5t-22 -62.5v-342q0 -39 17 -59.5t59 -20.5h117z" />
<glyph unicode="R" horiz-adv-x="625" d="M579 0h-115l-157 298h-128v-298h-102v638q0 53 49 53h202q116 0 170 -45t54 -150v-20q0 -54 -28.5 -94.5t-70.5 -62.5q-21 -8 -34 -12q24 -46 88 -169zM179 600v-209h156q49 0 81 23t32 61v35q0 90 -129 90h-140z" />
<glyph unicode="S" horiz-adv-x="581" d="M379 396q23 0 46 -7.5t47 -25.5t38.5 -54t14.5 -87v-44q0 -85 -48 -131.5t-129 -46.5h-143q-20 0 -42 9t-46.5 29t-40.5 62.5t-16 100.5h103q0 -53 17 -80.5t60 -27.5h93q88 0 88 84v45q0 40 -15.5 60.5t-57.5 20.5h-143q-23 0 -46 7.5t-46.5 25.5t-38 54t-14.5 87v37 q0 84 47.5 130.5t128.5 46.5h143q20 0 42.5 -8.5t47 -29t40.5 -63t16 -100.5h-104q0 54 -17 82t-60 28h-92q-89 0 -89 -85v-38q0 -81 77 -81h139z" />
<glyph unicode="T" horiz-adv-x="580" d="M490 691q26 0 39.5 -14t13.5 -39v-88h-103v50h-96v-600h-103v600h-95v-50h-103v88q0 21 12.5 37t39.5 16h395z" />
<glyph unicode="U" horiz-adv-x="625" d="M71 691h103v-518q0 -39 17 -59.5t59 -20.5h118q89 0 89 84v514h103v-513q0 -85 -47.5 -131.5t-128.5 -46.5h-169q-20 0 -42 7.5t-46.5 25t-40 54t-15.5 86.5v518z" />
<glyph unicode="V" d="M613 691q-234 -635 -239 -652l1 -1q-7 -21 -16 -29.5t-29 -8.5h-19q-35 0 -44 38l-239 653h105l188 -502l91 244l96 258h105z" />
<glyph unicode="W" horiz-adv-x="860" d="M729 691h101q-160 -636 -164 -651q-5 -21 -13.5 -30.5t-30.5 -9.5h-18q-21 0 -29 8t-14 28q-10 23 -122 441l-86 -311l-35 -127q-5 -15 -8.5 -22t-12 -12t-23.5 -5h-19q-21 0 -29.5 9t-13.5 29v-1l-167 654h103l118 -474q39 149 72 264q39 144 43 165q11 45 47 45h23 q19 0 28 -8t17 -28l116 -436l5.5 22t4.5 19q17 72 54.5 220.5t52.5 210.5z" />
<glyph unicode="X" horiz-adv-x="695" d="M638 691l-230 -345l230 -346h-122l-168 249q-11 -16 -170 -249h-121l230 346q-19 29 -60 90t-61 92l-109 163h122l169 -247q29 43 86.5 127t81.5 120h122z" />
<glyph unicode="Y" horiz-adv-x="563" d="M539 691l-207 -409v-282h-102v283q-141 282 -205 408h113l143 -286l141 286h117z" />
<glyph unicode="Z" horiz-adv-x="597" d="M426 167h104v-113q0 -28 -12.5 -41t-40.5 -13h-401v53q0 36 17 60v-1l299 488h-220v-75h-104v113q0 28 12.5 40.5t40.5 12.5h400v-49q0 -25 -18 -55l-304 -494h227v74z" />
<glyph unicode="[" horiz-adv-x="229" d="M202 657h-61v-650h61v-90h-162v830h162v-90z" />
<glyph unicode="\" horiz-adv-x="364" d="M261 0l-256 670h98l255 -670h-97z" />
<glyph unicode="]" horiz-adv-x="229" d="M28 6h61v651h-61v91h162v-832h-162v90z" />
<glyph unicode="^" horiz-adv-x="489" d="M15 385l230 323l229 -323l-73 -74l-155 223l-156 -224z" />
<glyph unicode="_" horiz-adv-x="568" d="M528 -188h-488v101h488v-101z" />
<glyph unicode="`" horiz-adv-x="289" d="M9 645l105 66l163 -154l-87 -53z" />
<glyph unicode="a" horiz-adv-x="522" d="M441 91h29v-91h-75q-26 0 -41 12q-27 -12 -53 -12h-91q-82 0 -115 32.5t-33 116.5q0 44 6 68.5t25 39.5t42.5 21t71.5 12l133 12v14q0 80 -86 80h-175v91h190q79 0 125.5 -45.5t46.5 -126.5v-224zM340 169v43q-18 -2 -56 -6.5t-56 -6.5q-39 -5 -52 -14.5t-13 -37.5 q0 -34 11 -45t51 -11h41q41 0 57.5 19.5t16.5 58.5z" />
<glyph unicode="b" horiz-adv-x="506" d="M337 487q19 0 40.5 -7.5t45 -24.5t39 -52.5t15.5 -83.5v-147q0 -82 -46 -127t-125 -45h-153q-26 0 -40 14t-14 38l-1 549h-42v90h90q31 0 41 -15t10 -41v-158q33 10 71 10h69zM376 171v148q0 38 -16 57.5t-57 19.5h-27q-77 0 -77 -80v-225h91q86 0 86 80z" />
<glyph unicode="c" horiz-adv-x="488" d="M339 163h102q-14 -88 -57.5 -125.5t-85.5 -37.5h-68q-78 0 -124 45.5t-46 126.5v147q0 48 15 83.5t38.5 52.5t45 24.5t40.5 7.5h68q156 0 174 -162h-100q-18 71 -81 71h-26q-41 0 -57.5 -19.5t-16.5 -57.5v-148q0 -80 85 -80h19q62 0 75 72z" />
<glyph unicode="d" horiz-adv-x="508" d="M60 319q0 48 15.5 83.5t39.5 52.5t45.5 24.5t40.5 7.5h67q44 0 72 -9v157q0 56 52 56h90v-90h-43v-549q0 -24 -15 -38t-41 -14h-152q-78 0 -124.5 45.5t-46.5 126.5v147zM162 319v-148q0 -80 85 -80h92v225q0 80 -78 80h-27q-40 0 -56 -19.5t-16 -57.5z" />
<glyph unicode="e" horiz-adv-x="505" d="M444 353v-100q0 -21 -16 -35t-36 -14h-232v-33q0 -80 85 -80h183v-91h-198q-78 0 -124 45.5t-46 126.5v147q0 48 15 83.5t38.5 52.5t45 24.5t41.5 7.5h75q75 0 122 -33t47 -101zM341 300v53q0 43 -74 43h-34q-41 0 -57 -19.5t-16 -57.5v-19h181z" />
<glyph unicode="f" horiz-adv-x="364" d="M269 601q-39 0 -48 -14.5t-9 -64.5v-35h98v-91h-98v-396h-101v396h-65v91h65v35q0 48 9 81t20.5 50t34 26t39 10.5t44.5 1.5h52v-90h-41z" />
<glyph unicode="g" horiz-adv-x="548" d="M491 478v-91h-61q9 -27 9 -68v-4q0 -81 -46 -126t-124 -46l-49 -2q9 -42 84 -42h37q22 0 33.5 -1t36 -8.5t38.5 -20.5t25.5 -41t11.5 -67v-4q0 -79 -42.5 -108t-127.5 -29h-108q-61 0 -86 14q-53 28 -53 118v21q0 50 14.5 73.5t49.5 37.5q-15 35 -15 75v11 q-57 44 -57 141v20q0 157 169 157h69q26 0 50 -10h142zM385 -39q0 32 -13.5 40t-58.5 8h-67q-45 0 -61 -9t-16 -42v-6q0 -31 12.5 -36.5t61.5 -5.5h57q23 0 32 0.5t22.5 2.5t18 6.5t8.5 13.5t4 23v5zM338 314v5q0 39 -16 58.5t-56 19.5h-28q-77 0 -77 -80v-6q0 -38 16.5 -58 t56.5 -20h19q42 0 63.5 21.5t21.5 59.5z" />
<glyph unicode="h" horiz-adv-x="511" d="M337 487q19 0 41 -7.5t45.5 -24.5t39 -52.5t15.5 -83.5v-319h-101v319q0 38 -16.5 57.5t-57.5 19.5h-25q-59 0 -73 -45v-351h-100v601h-49v90h98q51 0 51 -56v-155q27 7 64 7h68z" />
<glyph unicode="i" horiz-adv-x="281" d="M226 692v-110h-112v110h112zM224 427v-427h-98l-1 397h-69v91h115q53 0 53 -61z" />
<glyph unicode="j" horiz-adv-x="298" d="M259 692v-110h-111v110h111zM100 397v91h99q28 0 43.5 -17t15.5 -47v-433q0 -86 -34 -129t-112 -43h-92v89h76q38 0 50 20t12 62v407h-58z" />
<glyph unicode="k" horiz-adv-x="531" d="M403 0l-136 210l-11 -12l-49 -54v-144h-99v601h-52v90h105q27 0 36.5 -13t9.5 -39v-354l180 203h126l-181 -204q21 -32 87.5 -134t96.5 -150h-113z" />
<glyph unicode="l" horiz-adv-x="302" d="M236 635l1 -635h-100v601h-66v90h114q31 0 41 -14.5t10 -41.5z" />
<glyph unicode="m" horiz-adv-x="816" d="M608 487q19 0 40.5 -7.5t45.5 -24.5t39 -52.5t15 -83.5v-319h-101v319q0 38 -16 57.5t-56 19.5h-30q-41 0 -58 -20t-17 -60v-316h-100v319q0 38 -16 57.5t-57 19.5h-22q-73 0 -73 -50v-346h-100v397h-38v91h78q26 0 42 -17q30 16 84 16h63q49 0 89 -35q36 35 116 35h72z " />
<glyph unicode="n" horiz-adv-x="536" d="M471 316v-316h-101v319q0 38 -16 57.5t-56 19.5h-26q-42 0 -58 -16.5t-16 -51.5v-328h-99v397h-38v91h78q25 0 41 -17q30 16 84 16h67q69 0 104.5 -48.5t35.5 -122.5z" />
<glyph unicode="o" horiz-adv-x="500" d="M300 487q19 0 40.5 -7.5t45 -24.5t39 -52.5t15.5 -83.5v-147q0 -81 -46.5 -126.5t-124.5 -45.5h-67q-19 0 -40.5 7.5t-45.5 24.5t-39 53t-15 84v162q0 156 171 156h67zM339 171v148q0 38 -16 57.5t-56 19.5h-26q-78 0 -78 -80v-147q0 -39 16 -58.5t57 -19.5h18 q85 0 85 80z" />
<glyph unicode="p" horiz-adv-x="507" d="M448 169q0 -48 -15.5 -83.5t-39 -52.5t-45 -24.5t-40.5 -7.5h-68q-40 0 -71 9v-138q0 -53 -52 -53h-90v89h43v528q0 23 14.5 37.5t39.5 14.5h153q79 0 125 -45.5t46 -127.5v-146zM347 169v147q0 81 -86 81h-91v-226q0 -80 77 -80h27q41 0 57 19.5t16 58.5z" />
<glyph unicode="q" horiz-adv-x="506" d="M200 1q-20 0 -41 7.5t-45 24.5t-39 52.5t-15 83.5v146q0 81 46 127t124 46h152q26 0 41 -14t15 -38v-528h42v-89h-89q-31 0 -42 14t-11 39v138q-32 -9 -71 -9h-67zM160 316v-147q0 -39 16 -58.5t57 -19.5h26q78 0 78 80v226h-92q-42 0 -63.5 -21.5t-21.5 -59.5z" />
<glyph unicode="r" horiz-adv-x="405" d="M241 489h118v-91h-108q-48 0 -48 -56v-342h-99v397h-48v91h87q7 0 16.5 -4.5t15.5 -9.5l6 -4q35 19 60 19z" />
<glyph unicode="s" horiz-adv-x="486" d="M294 289q23 0 35.5 -1t34 -8t33 -20t21 -40.5t9.5 -67.5v-13q0 -80 -42 -109.5t-128 -29.5h-57q-1 0 -18 -0.5t-23 0t-22.5 3.5t-24 8.5t-20 17t-18 27t-10.5 39.5t-5 55h102q0 -42 11 -50.5t52 -8.5h10h7q48 0 67 8.5t19 38.5v14q0 29 -13 37.5t-57 8.5h-69 q-28 -1 -44 1t-39 12.5t-34.5 40t-11.5 76.5v11q0 81 44 115t127 34h57q24 0 41.5 -3.5t43.5 -16.5t40.5 -46.5t14.5 -85.5h-100q0 43 -11.5 51.5t-52.5 8.5h-10h-8q-45 0 -64.5 -12t-19.5 -44v-12q0 -27 13 -33t60 -6h60z" />
<glyph unicode="t" horiz-adv-x="322" d="M244 91h41v-91h-54q-28 0 -44 1.5t-38 10.5t-33.5 26t-20.5 50t-9 81v227h-58v92h58v118h100v-118h91v-92h-91v-227q0 -50 9 -64t49 -14z" />
<glyph unicode="u" horiz-adv-x="532" d="M77 171v317h102v-319q0 -39 16 -58.5t56 -19.5h27q74 0 74 51v346h98v-397h32v-91h-71q-25 0 -42 17q-33 -16 -83 -16h-69q-67 0 -103.5 48.5t-36.5 121.5z" />
<glyph unicode="v" horiz-adv-x="507" d="M479 488q-173 -444 -182 -463q-15 -25 -42 -25h-11q-36 0 -45 36l-169 452h103l117 -307l50 124l73 183h106z" />
<glyph unicode="w" horiz-adv-x="743" d="M615 488h105q-141 -441 -146 -451q-11 -37 -41 -37h-18q-35 0 -44 38q-15 42 -21 63l-70 204l-1 -4q-16 -44 -20 -56q-24 -72 -66 -200q-5 -18 -8.5 -25.5t-12.5 -13.5t-24 -6h-19q-18 0 -27.5 11.5t-18.5 34.5l-139 442h103l93 -298q63 189 83 254q9 25 20 34.5t31 9.5 h14q17 0 26.5 -5.5t13.5 -13t11 -25.5l82 -253z" />
<glyph unicode="x" horiz-adv-x="577" d="M519 488l-174 -244l61 -86q18 -25 60.5 -85.5t50.5 -72.5h-114l-116 162q-20 -29 -59 -83.5t-56 -78.5h-115l173 244l-73 102l-99 142h114l115 -162l116 162h116z" />
<glyph unicode="y" horiz-adv-x="498" d="M350 488h103q-223 -604 -227 -615q-18 -37 -42 -49.5t-61 -3.5l1 -1q-23 5 -48 15.5t-38 18.5l-13 8l44 85q31 -26 57 -32q9 -2 17 12l3 6v-1l43 118q-23 63 -166 439h102l112 -306q16 42 54.5 148t58.5 158z" />
<glyph unicode="z" horiz-adv-x="490" d="M422 435q0 -11 -13 -35l-5 -6l-210 -303h223v-91h-351v47q0 28 11 43l216 306h-211v92h340v-53z" />
<glyph unicode="{" horiz-adv-x="280" d="M72 615q0 64 30.5 98.5t90.5 34.5h58v-89h-43q-35 0 -35 -42v-569q0 -42 35 -42h43v-90h-58q-121 0 -121 133v246h-58v102h58v218z" />
<glyph unicode="|" horiz-adv-x="181" d="M40 -113v875h102v-875h-102z" />
<glyph unicode="}" horiz-adv-x="279" d="M208 294v-246q0 -64 -30.5 -98.5t-90.5 -34.5h-58v89h43q35 0 35 42v569q0 41 -35 41h-43v91h58q121 0 121 -133v-218h58v-102h-58z" />
<glyph unicode="~" horiz-adv-x="388" d="M304 287h56q-4 -64 -30 -91q-38 -38 -108 -11q-20 8 -58 24q-40 18 -57 16q-10 -1 -17 -15.5t-7 -34.5h-50q-1 1 -1 10t2.5 22t4.5 20q10 30 31 49.5t50 18.5q19 0 38.5 -6.5t43.5 -18t36 -15.5q37 -15 53 -4q13 9 13 36z" />
<glyph unicode="&#xa1;" horiz-adv-x="220" d="M185 488v-141h-143v141h143zM65 247h96l13 -450h-137z" />
<glyph unicode="&#xa2;" horiz-adv-x="456" d="M277 388v-290q48 15 59 76h104q-8 -50 -28 -86.5t-44 -54t-45.5 -25.5t-40.5 -8h-5v-82h-92v84q-74 10 -117.5 58.5t-43.5 128.5v115q0 53 17 91.5t43 57t50 26.5t45 8h6v62h92v-64q143 -15 163 -172h-104q-12 59 -59 75zM123 188q0 -72 62 -88v289q-62 -17 -62 -85v-116 z" />
<glyph unicode="&#xa3;" horiz-adv-x="508" d="M189 313v-220h277v-93h-378v313h-65v101h65v101q0 177 174 177h102q69 0 114 -63l-49 -89q-47 63 -82 63h-75q-47 0 -65 -22.5t-18 -65.5v-101h172v-101h-172z" />
<glyph unicode="&#xa5;" horiz-adv-x="537" d="M318 273v-32h93v-68h-93v-47h93v-69h-93v-57h-99v57h-92v69h92v47h-92v68h92v33q-36 72 -109.5 216.5t-90.5 179.5h111l138 -276l137 276h113z" />
<glyph unicode="&#xa6;" horiz-adv-x="181" d="M40 282v353h102v-353h-102zM40 -168v353h102v-353h-102z" />
<glyph unicode="&#xa7;" horiz-adv-x="515" d="M342 412q24 0 44.5 -5.5t44 -20.5t37.5 -49t14 -84v-8q0 -67 -36 -110q36 -36 36 -107v-17q0 -81 -43 -113t-126 -32h-139q-54 0 -74 8q-67 28 -67 151h101q0 -47 13.5 -58t58.5 -11h91q45 0 65 11t20 43v18q0 47 -42 56h-166q-22 0 -42 5.5t-44.5 20t-39.5 48.5t-15 83 v7q0 69 41 112q-41 34 -41 112v10q0 80 43.5 112.5t126.5 32.5h139q53 0 74 -8q66 -27 66 -151h-100q0 45 -14 56.5t-59 11.5h-90q-46 0 -65.5 -10.5t-19.5 -42.5v-11q0 -34 15 -47t57 -13h136zM382 244v8q0 36 -16 52.5t-57 16.5h-90q-85 0 -85 -74q0 -36 15.5 -52.5 t56.5 -16.5h132q44 16 44 66z" />
<glyph unicode="&#xa8;" horiz-adv-x="421" d="M40 672h121v-120h-121v120zM260 672h121v-120h-121v120z" />
<glyph unicode="&#xa9;" horiz-adv-x="608" d="M419 689q21 0 44.5 -8t49.5 -26.5t42.5 -57t16.5 -91.5v-317q0 -89 -51 -139t-137 -50h-195q-21 0 -44.5 8t-49 26.5t-42 57.5t-16.5 92v317q0 89 50.5 138.5t136.5 49.5h195zM470 188v318q0 94 -89 94h-140q-50 0 -76.5 -27t-26.5 -71v-318q0 -93 89 -93h141 q49 0 75.5 26.5t26.5 70.5zM335 301h78v-17q0 -28 -1.5 -40.5t-9.5 -27t-27 -20t-52 -5.5h-57q-25 0 -50.5 21t-25.5 69v97q0 42 24.5 67t65.5 25h54q50 0 64.5 -17.5t14.5 -86.5h-78q0 13 -0.5 17.5t-3.5 7.5t-9 3h-35q-18 0 -18 -16v-97q0 -14 12 -14h35q15 0 17 3 q2 5 2 31z" />
<glyph unicode="&#xaa;" horiz-adv-x="327" d="M279 538v-120h18v-76h-55q-13 0 -25 6q-22 -6 -31 -6h-53q-55 0 -76.5 21.5t-21.5 77.5q0 55 18 71t77 22l68 8q-2 33 -38 33h-115v75h123q52 0 81.5 -29.5t29.5 -82.5zM198 452v13q-4 0 -23.5 -2.5t-30.5 -3.5q-19 -1 -23 -4.5t-4 -14.5q0 -14 4.5 -18t20.5 -4h24 q32 0 32 34z" />
<glyph unicode="&#xab;" horiz-adv-x="746" d="M337 -1l-323 230l323 229l74 -73l-223 -155l224 -156zM637 -1l-323 230l323 229l74 -73l-223 -155l224 -156z" />
<glyph unicode="&#xac;" horiz-adv-x="434" d="M305 305v82h-295v100h333q52 0 52 -48v-134h-90z" />
<glyph unicode="&#xae;" horiz-adv-x="608" d="M414 372q0 -41 -49 -71l75 -108h-79l-67 94h-33v-94h-78v246q0 20 7.5 29t28.5 9h85q57 0 83.5 -21.5t26.5 -74.5v-9zM261 365h46q29 0 29 8v19q0 10 -36 10h-39v-37zM419 689q21 0 44.5 -8t49.5 -26.5t42.5 -57t16.5 -91.5v-317q0 -89 -51 -139t-137 -50h-195 q-21 0 -44.5 8t-49 26.5t-42 57.5t-16.5 92v317q0 89 50.5 138.5t136.5 49.5h195zM470 188v318q0 94 -89 94h-140q-50 0 -76.5 -27t-26.5 -71v-318q0 -93 89 -93h141q49 0 75.5 26.5t26.5 70.5z" />
<glyph unicode="&#xb0;" horiz-adv-x="282" d="M141 694q47 0 80.5 -33t33.5 -80q0 -48 -33.5 -81t-80.5 -33t-80 33t-33 81q0 47 33 80t80 33zM141 542q16 0 27 11.5t11 27.5q0 15 -11 26.5t-27 11.5t-27 -11.5t-11 -26.5q0 -16 11 -27.5t27 -11.5z" />
<glyph unicode="&#xb1;" horiz-adv-x="415" d="M393 0h-371v101h371v-101zM348 237h-90v-91h-99v91h-93v101h93v91h99v-91h90v-101z" />
<glyph unicode="&#xb2;" horiz-adv-x="531" d="M457 1h-426v39q0 26 19 45l31 30q104 98 201 227q55 76 55 144q0 50 -25 81v-1q-17 19 -36 25q-25 11 -57 11q-56 0 -139 -56q-26 50 -34 77q97 69 191 69q98 0 155 -62q48 -54 48 -132q0 -84 -68 -185q-91 -127 -154 -189l-33 -32h272v-91z" />
<glyph unicode="&#xb3;" horiz-adv-x="516" d="M205 -10q-83 0 -177 47l31 84q84 -42 144 -42q73 0 106 39q30 31 30 75v3q0 40 -14 65q-20 35 -54 51q-38 17 -87 17h-58v47q0 13 10 25q12 10 26 10h22q51 0 89 26q22 15 31 31q13 26 13 46q0 44 -23 70q-25 25 -80 25q-57 0 -137 -46l-9 36v-1l-9 22.5t-9 23.5 q30 20 85 41q47 14 95 14q93 0 143 -50v1q49 -46 49 -123q0 -55 -42 -103q-28 -30 -68 -52q48 -19 77 -45q58 -53 58 -133q0 -85 -63 -143q-64 -61 -179 -61z" />
<glyph unicode="&#xb4;" horiz-adv-x="284" d="M173 733l102 -69l-176 -144l-88 54z" />
<glyph unicode="&#xb6;" horiz-adv-x="541" d="M514 611v-92h-82v-669h-97v669h-59v-669h-98v400q-18 3 -43 15h1q-30 12 -60 37h1q-22 19 -40 54q-18 40 -18 74q0 90 57 139q47 42 143 42h295z" />
<glyph unicode="&#xb7;" horiz-adv-x="200" d="M161 395v-164h-121v164h121z" />
<glyph unicode="&#xb8;" horiz-adv-x="201" d="M173 -126q-14 -38 -55.5 -46t-75.5 2l-35 11l21 51q2 -1 4.5 -2t10.5 -3.5t15 -4t16 -2t15 1t11 6.5t5 14q0 7 -1.5 11t-6 6t-8.5 2.5t-10 0.5q-40 0 -46 15q-3 8 4 23.5t15 27.5l8 12h77l-24 -37q24 1 49.5 -24t10.5 -65z" />
<glyph unicode="&#xb9;" horiz-adv-x="313" d="M139 1v585l-107 -56l-27 80l150 80h43q43 0 43 -40v-649h-102z" />
<glyph unicode="&#xba;" horiz-adv-x="314" d="M187 651q32 0 63 -25.5t31 -84.5v-88q0 -54 -30.5 -84t-81.5 -30h-41q-32 0 -63 25.5t-31 85.5v97q0 104 113 104h40zM200 453v88q0 34 -33 34h-15q-36 0 -36 -37v-88q0 -18 7 -26.5t26 -8.5h10q41 0 41 38z" />
<glyph unicode="&#xbb;" horiz-adv-x="746" d="M409 459l323 -230l-323 -229l-74 73l223 155l-224 156zM109 459l323 -230l-323 -229l-74 73l223 155l-224 156z" />
<glyph unicode="&#xbc;" horiz-adv-x="1194" d="M139 1v585l-107 -56l-27 80l150 80h43q43 0 43 -40v-649h-102zM548 670l-229 -670h96l232 670h-99zM1059 276h79v-87h-79v-188h-101v188h-291v68l285 436h107v-417zM958 276v291l-178 -291h178z" />
<glyph unicode="&#xbd;" horiz-adv-x="1193" d="M139 1v585l-107 -56l-27 80l150 80h43q43 0 43 -40v-649h-102zM548 670l-229 -670h96l232 670h-99zM1119 1h-426v39q0 26 19 45l31 30q104 98 201 227q55 76 55 144q0 50 -25 81v-1q-17 19 -36 25q-25 11 -57 11q-56 0 -139 -56q-26 50 -34 77q97 69 191 69q98 0 155 -62 q48 -54 48 -132q0 -84 -68 -185q-91 -127 -154 -189l-33 -32h272v-91z" />
<glyph unicode="&#xbe;" horiz-adv-x="1397" d="M205 -10q-83 0 -177 47l31 84q84 -42 144 -42q73 0 106 39q30 31 30 75v3q0 40 -14 65q-20 35 -54 51q-38 17 -87 17h-58v47q0 13 10 25q12 10 26 10h22q51 0 89 26q22 15 31 31q13 26 13 46q0 44 -23 70q-25 25 -80 25q-57 0 -137 -46l-9 36v-1l-9 22.5t-9 23.5 q30 20 85 41q47 14 95 14q93 0 143 -50v1q49 -46 49 -123q0 -55 -42 -103q-28 -30 -68 -52q48 -19 77 -45q58 -53 58 -133q0 -85 -63 -143q-64 -61 -179 -61zM751 670l-229 -670h96l232 670h-99zM1262 276h79v-87h-79v-188h-101v188h-291v68l285 436h107v-417zM1161 276v291 l-178 -291h178z" />
<glyph unicode="&#xbf;" horiz-adv-x="408" d="M278 488v-141h-142v141h142zM257 247v-163h-131v-127q0 -20 7 -34q5 -16 21 -25q14 -7 48 -7h6q39 0 61 14l-2 -1q20 17 20 53v44h103v-52q-3 -75 -50 -113q-48 -38 -127 -38h-15q-83 0 -127 41q-48 42 -48 118v210h121v80h113z" />
<glyph unicode="&#xc0;" d="M497 0l-55 188h-244l-56 -188h-109q189 621 195 643q17 48 53 48h78q38 0 53 -48l194 -643h-109zM226 282h187q-24 84 -36 121l-57 191zM290 990l-105 -66l181 -141l87 53z" />
<glyph unicode="&#xc1;" d="M497 0l-55 188h-244l-56 -188h-109q189 621 195 643q17 48 53 48h78q38 0 53 -48l194 -643h-109zM226 282h187q-24 84 -36 121l-57 191zM349 962l102 -69l-176 -144l-88 54z" />
<glyph unicode="&#xc2;" d="M497 0l-55 188h-244l-56 -188h-109q189 621 195 643q17 48 53 48h78q38 0 53 -48l194 -643h-109zM226 282h187q-24 84 -36 121l-57 191zM382 766h104q-3 7 -8.5 19.5t-23.5 43.5t-36 55t-44.5 43.5t-51.5 19.5t-51.5 -18.5t-47 -45.5t-37 -53.5t-25.5 -45.5l-9 -18h104 q1 4 4 10t10.5 21.5t15 27.5t18 22t18.5 10q13 0 28 -22.5t24 -45.5z" />
<glyph unicode="&#xc3;" d="M497 0l-55 188h-244l-56 -188h-109q189 621 195 643q17 48 53 48h78q38 0 53 -48l194 -643h-109zM226 282h187q-24 84 -36 121l-57 191zM428 876h56q-4 -64 -30 -91q-38 -38 -108 -11q-20 8 -58 24q-40 18 -57 16q-10 -1 -17 -15.5t-7 -34.5h-50q-1 1 -1 10t2.5 22 t4.5 20q10 30 31 49.5t50 18.5q19 0 38.5 -6.5t43.5 -18t36 -15.5q37 -15 53 -4q13 9 13 36z" />
<glyph unicode="&#xc4;" d="M497 0l-55 188h-244l-56 -188h-109q189 621 195 643q17 48 53 48h78q38 0 53 -48l194 -643h-109zM226 282h187q-24 84 -36 121l-57 191zM149 896h121v-120h-121v120zM369 896h121v-120h-121v120z" />
<glyph unicode="&#xc5;" d="M497 0l-55 188h-244l-56 -188h-109q189 621 195 643q17 48 53 48h78q38 0 53 -48l194 -643h-109zM226 282h187q-24 84 -36 121l-57 191zM319 993q47 0 80.5 -33t33.5 -80q0 -48 -33.5 -81t-80.5 -33t-80 33t-33 81q0 47 33 80t80 33zM319 841q16 0 27 11.5t11 27.5 q0 15 -11 26.5t-27 11.5t-27.5 -11.5t-11.5 -26.5q0 -16 11.5 -27.5t27.5 -11.5z" />
<glyph unicode="&#xc6;" horiz-adv-x="862" d="M828 599h-275v-206h220v-92h-220v-209h275v-92h-366l-58 188h-215q-33 -107 -55 -188h-110q188 621 195 643v-1q15 49 54 49h46q44 0 54 -49l77 -254v250q0 53 49 53h329v-92zM216 281h161l-80 265q-27 -85 -35 -115q-34 -108 -46 -150z" />
<glyph unicode="&#xc7;" horiz-adv-x="620" d="M452 230h103v-15q0 -34 -0.5 -50.5t-3.5 -44t-9.5 -41.5t-19 -32t-31 -26t-46.5 -14.5t-65 -6.5h-170q-20 0 -42 7.5t-46 25t-40 54t-16 86.5v341q0 84 47.5 130.5t129.5 46.5h159q90 0 121.5 -50.5t31.5 -174.5h-103q0 33 -0.5 48t-4.5 35.5t-11.5 29t-22.5 15t-37 6.5 h-117q-89 0 -89 -85v-342q0 -40 16.5 -60t58.5 -20h119q33 0 51.5 5t26 20t9 27t1.5 42v43zM382 -126q15 40 -10.5 65t-49.5 24q14 25 24 37h-77q-4 -5 -9 -13t-13 -25t-5 -25q6 -15 46 -15q9 0 13.5 -1t8.5 -5.5t4 -13.5q-1 -12 -9 -17t-19 -4.5t-22.5 3t-19.5 5.5l-7 3 l-21 -51q5 -2 14.5 -5t34.5 -7.5t45.5 -3.5t41.5 13t30 36z" />
<glyph unicode="&#xc8;" horiz-adv-x="562" d="M515 600h-340v-207h286v-92h-286v-208h340v-93h-394q-50 0 -50 54v584q0 53 50 53h394v-91zM147 910l105 66l163 -154l-87 -53z" />
<glyph unicode="&#xc9;" horiz-adv-x="562" d="M515 600h-340v-207h286v-92h-286v-208h340v-93h-394q-50 0 -50 54v584q0 53 50 53h394v-91zM311 957l102 -69l-176 -144l-88 54z" />
<glyph unicode="&#xca;" horiz-adv-x="562" d="M515 600h-340v-207h286v-92h-286v-208h340v-93h-394q-50 0 -50 54v584q0 53 50 53h394v-91zM448 775h-104q-1 4 -3.5 10t-9 21.5t-13.5 27.5t-16.5 22t-17.5 10q-13 0 -29.5 -23t-26.5 -45l-10 -23h-104q3 7 9 19.5t25 43.5t38 55t46 43.5t52 19.5t51 -18.5t45.5 -45 t35 -53.5t24.5 -45z" />
<glyph unicode="&#xcb;" horiz-adv-x="562" d="M515 600h-340v-207h286v-92h-286v-208h340v-93h-394q-50 0 -50 54v584q0 53 50 53h394v-91zM110 894h121v-120h-121v120zM330 894h121v-120h-121v120z" />
<glyph unicode="&#xcc;" horiz-adv-x="260" d="M189 691v-691h-102v691h102zM-4 907l105 66l163 -154l-87 -53z" />
<glyph unicode="&#xcd;" horiz-adv-x="260" d="M189 691v-691h-102v691h102zM160 990l102 -69l-176 -144l-88 54z" />
<glyph unicode="&#xce;" horiz-adv-x="260" d="M189 691v-691h-102v691h102zM297 759h-104q-1 4 -3.5 10t-9 21.5t-13.5 27.5t-16.5 22t-17.5 10q-13 0 -29.5 -23t-26.5 -45l-10 -23h-104q3 7 9 19.5t25 43.5t38 55t46 43.5t52 19.5t51 -18.5t45.5 -45t35 -53.5t23.5 -45z" />
<glyph unicode="&#xcf;" horiz-adv-x="260" d="M189 691v-691h-102v691h102zM-35 911h121v-120h-121v120zM185 911h121v-120h-121v120z" />
<glyph unicode="&#xd1;" horiz-adv-x="660" d="M590 691v-637q0 -54 -49 -54h-42l-326 490v-490h-102v638q0 27 10 40t37 13h46l323 -493v493h103zM439 879h56q-4 -64 -30 -91q-38 -38 -108 -11q-20 8 -58 24q-40 18 -57 16q-10 -1 -17 -15.5t-7 -34.5h-50q-1 1 -1 10t2.5 22t4.5 20q10 30 31 49.5t50 18.5 q19 0 38.5 -6.5t43.5 -18t36 -15.5q37 -15 53 -4q13 9 13 36z" />
<glyph unicode="&#xd2;" horiz-adv-x="627" d="M419 691q20 0 42 -7.5t46.5 -25t40 -54t15.5 -86.5v-340q0 -85 -47.5 -131.5t-129.5 -46.5h-175q-20 0 -42 7.5t-46.5 25t-40 54t-15.5 86.5v341q0 84 47.5 130.5t128.5 46.5h176zM460 177v341q0 40 -17 61t-59 21h-125q-88 0 -88 -85v-342q0 -40 16.5 -60t58.5 -20h125 q89 0 89 84zM179 907l105 66l163 -154l-87 -53z" />
<glyph unicode="&#xd3;" horiz-adv-x="627" d="M419 691q20 0 42 -7.5t46.5 -25t40 -54t15.5 -86.5v-340q0 -85 -47.5 -131.5t-129.5 -46.5h-175q-20 0 -42 7.5t-46.5 25t-40 54t-15.5 86.5v341q0 84 47.5 130.5t128.5 46.5h176zM460 177v341q0 40 -17 61t-59 21h-125q-88 0 -88 -85v-342q0 -40 16.5 -60t58.5 -20h125 q89 0 89 84zM343 964l102 -69l-176 -144l-88 54z" />
<glyph unicode="&#xd4;" horiz-adv-x="627" d="M419 691q20 0 42 -7.5t46.5 -25t40 -54t15.5 -86.5v-340q0 -85 -47.5 -131.5t-129.5 -46.5h-175q-20 0 -42 7.5t-46.5 25t-40 54t-15.5 86.5v341q0 84 47.5 130.5t128.5 46.5h176zM460 177v341q0 40 -17 61t-59 21h-125q-88 0 -88 -85v-342q0 -40 16.5 -60t58.5 -20h125 q89 0 89 84zM480 783h-104q-1 4 -3.5 10t-9 21.5t-13.5 27.5t-16.5 22t-17.5 10q-13 0 -29.5 -23t-26.5 -45l-10 -23h-104q3 7 9 19.5t25 43.5t38 55t46 43.5t52 19.5t51 -18.5t45.5 -45t35 -53.5t24.5 -45z" />
<glyph unicode="&#xd5;" horiz-adv-x="627" d="M419 691q20 0 42 -7.5t46.5 -25t40 -54t15.5 -86.5v-340q0 -85 -47.5 -131.5t-129.5 -46.5h-175q-20 0 -42 7.5t-46.5 25t-40 54t-15.5 86.5v341q0 84 47.5 130.5t128.5 46.5h176zM460 177v341q0 40 -17 61t-59 21h-125q-88 0 -88 -85v-342q0 -40 16.5 -60t58.5 -20h125 q89 0 89 84zM422 900h56q-4 -64 -30 -91q-38 -38 -108 -11q-20 8 -58 24q-40 18 -57 16q-10 -1 -17 -15.5t-7 -34.5h-50q-1 1 -1 10t2.5 22t4.5 20q10 30 31 49.5t50 18.5q19 0 38.5 -6.5t43.5 -18t36 -15.5q37 -15 53 -4q13 9 13 36z" />
<glyph unicode="&#xd6;" horiz-adv-x="627" d="M419 691q20 0 42 -7.5t46.5 -25t40 -54t15.5 -86.5v-340q0 -85 -47.5 -131.5t-129.5 -46.5h-175q-20 0 -42 7.5t-46.5 25t-40 54t-15.5 86.5v341q0 84 47.5 130.5t128.5 46.5h176zM460 177v341q0 40 -17 61t-59 21h-125q-88 0 -88 -85v-342q0 -40 16.5 -60t58.5 -20h125 q89 0 89 84zM143 910h121v-120h-121v120zM363 910h121v-120h-121v120z" />
<glyph unicode="&#xd7;" horiz-adv-x="327" d="M302 294l-63 -63l63 -62l-74 -75l-65 63l-63 -63l-75 75l64 64l-63 63l73 73l63 -63l65 63z" />
<glyph unicode="&#xd8;" horiz-adv-x="558" d="M457 762l-25 -80q40 -15 67.5 -55t27.5 -109v-340q0 -84 -47.5 -131t-128.5 -47h-131l-19 -62h-98l20 72q-92 40 -92 163v342q0 83 47.5 129.5t127.5 46.5h125l22 71h104zM135 173q0 -44 19 -63q21 68 71 231.5t79 258.5h-81q-44 0 -66 -22.5t-22 -61.5v-343zM424 177 v341q0 50 -22 68l-153 -493h87q44 0 66 22.5t22 61.5z" />
<glyph unicode="&#xd9;" horiz-adv-x="625" d="M71 691h103v-518q0 -39 17 -59.5t59 -20.5h118q89 0 89 84v514h103v-513q0 -85 -47.5 -131.5t-128.5 -46.5h-169q-20 0 -42 7.5t-46.5 25t-40 54t-15.5 86.5v518zM178 904l105 66l163 -154l-87 -53z" />
<glyph unicode="&#xda;" horiz-adv-x="625" d="M71 691h103v-518q0 -39 17 -59.5t59 -20.5h118q89 0 89 84v514h103v-513q0 -85 -47.5 -131.5t-128.5 -46.5h-169q-20 0 -42 7.5t-46.5 25t-40 54t-15.5 86.5v518zM342 967l102 -69l-176 -144l-88 54z" />
<glyph unicode="&#xdb;" horiz-adv-x="625" d="M71 691h103v-518q0 -39 17 -59.5t59 -20.5h118q89 0 89 84v514h103v-513q0 -85 -47.5 -131.5t-128.5 -46.5h-169q-20 0 -42 7.5t-46.5 25t-40 54t-15.5 86.5v518zM479 791h-104q-1 4 -3.5 10t-9 21.5t-13.5 27.5t-16.5 22t-17.5 10q-13 0 -29.5 -23t-26.5 -45l-10 -23 h-104q3 7 9 19.5t25 43.5t38 55t46 43.5t52 19.5t51 -18.5t45.5 -45t35 -53.5t23.5 -45z" />
<glyph unicode="&#xdc;" horiz-adv-x="625" d="M71 691h103v-518q0 -39 17 -59.5t59 -20.5h118q89 0 89 84v514h103v-513q0 -85 -47.5 -131.5t-128.5 -46.5h-169q-20 0 -42 7.5t-46.5 25t-40 54t-15.5 86.5v518zM142 896h121v-120h-121v120zM362 896h121v-120h-121v120z" />
<glyph unicode="&#xdd;" horiz-adv-x="563" d="M539 691l-207 -409v-282h-102v283q-141 282 -205 408h113l143 -286l141 286h117zM311 957l102 -69l-176 -144l-88 54z" />
<glyph unicode="&#xdf;" horiz-adv-x="515" d="M482 492q0 -90 -70 -150q70 -53 70 -141v-4q0 -43 -7 -73.5t-27 -61t-64 -46.5t-111 -16h-67v93h56q33 0 56.5 7.5t34.5 16.5t17 25.5t6.5 25t0.5 24.5v10q0 41 -35.5 66.5t-88.5 25.5h-47v94h47q52 0 88 29.5t36 71.5q0 92 -142 92h-94v-581h-51q-50 0 -50 55v561 q0 55 50 55h156q39 0 68.5 -3t63 -13t54.5 -28.5t35.5 -51.5t14.5 -79v-4z" />
<glyph unicode="&#xe0;" horiz-adv-x="522" d="M441 91h29v-91h-75q-26 0 -41 12q-27 -12 -53 -12h-91q-82 0 -115 32.5t-33 116.5q0 44 6 68.5t25 39.5t42.5 21t71.5 12l133 12v14q0 80 -86 80h-175v91h190q79 0 125.5 -45.5t46.5 -126.5v-224zM340 169v43q-18 -2 -56 -6.5t-56 -6.5q-39 -5 -52 -14.5t-13 -37.5 q0 -34 11 -45t51 -11h41q41 0 57.5 19.5t16.5 58.5zM127 645l105 66l163 -154l-87 -53z" />
<glyph unicode="&#xe1;" horiz-adv-x="522" d="M441 91h29v-91h-75q-26 0 -41 12q-27 -12 -53 -12h-91q-82 0 -115 32.5t-33 116.5q0 44 6 68.5t25 39.5t42.5 21t71.5 12l133 12v14q0 80 -86 80h-175v91h190q79 0 125.5 -45.5t46.5 -126.5v-224zM340 169v43q-18 -2 -56 -6.5t-56 -6.5q-39 -5 -52 -14.5t-13 -37.5 q0 -34 11 -45t51 -11h41q41 0 57.5 19.5t16.5 58.5zM291 733l102 -69l-176 -144l-88 54z" />
<glyph unicode="&#xe2;" horiz-adv-x="522" d="M441 91h29v-91h-75q-26 0 -41 12q-27 -12 -53 -12h-91q-82 0 -115 32.5t-33 116.5q0 44 6 68.5t25 39.5t42.5 21t71.5 12l133 12v14q0 80 -86 80h-175v91h190q79 0 125.5 -45.5t46.5 -126.5v-224zM340 169v43q-18 -2 -56 -6.5t-56 -6.5q-39 -5 -52 -14.5t-13 -37.5 q0 -34 11 -45t51 -11h41q41 0 57.5 19.5t16.5 58.5zM428 510h-104q-1 4 -3.5 10t-9 21.5t-13.5 27.5t-16.5 22t-17.5 10q-13 0 -29.5 -22.5t-26.5 -45.5l-10 -23h-104q3 7 9 19.5t25 43.5t38 55t46 43.5t52 19.5t51 -18.5t45.5 -45.5t35 -53.5t24.5 -45.5z" />
<glyph unicode="&#xe3;" horiz-adv-x="522" d="M441 91h29v-91h-75q-26 0 -41 12q-27 -12 -53 -12h-91q-82 0 -115 32.5t-33 116.5q0 44 6 68.5t25 39.5t42.5 21t71.5 12l133 12v14q0 80 -86 80h-175v91h190q79 0 125.5 -45.5t46.5 -126.5v-224zM340 169v43q-18 -2 -56 -6.5t-56 -6.5q-39 -5 -52 -14.5t-13 -37.5 q0 -34 11 -45t51 -11h41q41 0 57.5 19.5t16.5 58.5zM370 661h56q-4 -64 -30 -91q-38 -38 -108 -11q-20 8 -58 24q-40 18 -57 16q-10 -1 -17 -15.5t-7 -34.5h-50q-1 1 -1 10t2.5 22t4.5 20q10 30 31 49.5t50 18.5q19 0 38.5 -6.5t43.5 -18t36 -15.5q37 -15 53 -4q13 9 13 36z " />
<glyph unicode="&#xe4;" horiz-adv-x="522" d="M441 91h29v-91h-75q-26 0 -41 12q-27 -12 -53 -12h-91q-82 0 -115 32.5t-33 116.5q0 44 6 68.5t25 39.5t42.5 21t71.5 12l133 12v14q0 80 -86 80h-175v91h190q79 0 125.5 -45.5t46.5 -126.5v-224zM340 169v43q-18 -2 -56 -6.5t-56 -6.5q-39 -5 -52 -14.5t-13 -37.5 q0 -34 11 -45t51 -11h41q41 0 57.5 19.5t16.5 58.5zM90 672h121v-120h-121v120zM310 672h121v-120h-121v120z" />
<glyph unicode="&#xe5;" horiz-adv-x="522" d="M441 91h29v-91h-75q-26 0 -41 12q-27 -12 -53 -12h-91q-82 0 -115 32.5t-33 116.5q0 44 6 68.5t25 39.5t42.5 21t71.5 12l133 12v14q0 80 -86 80h-175v91h190q79 0 125.5 -45.5t46.5 -126.5v-224zM340 169v43q-18 -2 -56 -6.5t-56 -6.5q-39 -5 -52 -14.5t-13 -37.5 q0 -34 11 -45t51 -11h41q41 0 57.5 19.5t16.5 58.5zM260 755q47 0 80.5 -33t33.5 -80q0 -48 -33.5 -81t-80.5 -33t-80 33t-33 81q0 47 33 80t80 33zM260 603q16 0 27 11.5t11 27.5q0 15 -11 26.5t-27 11.5t-27.5 -11.5t-11.5 -26.5q0 -16 11.5 -27.5t27.5 -11.5z" />
<glyph unicode="&#xe6;" horiz-adv-x="717" d="M681 353v-103q-2 -19 -17 -32.5t-36 -13.5h-222v-44q0 -31 22.5 -50t62.5 -19h175v-91h-190q-69 0 -115 38q-36 -38 -94 -38h-83q-80 0 -113.5 32.5t-33.5 116.5q0 44 6 69t25.5 40t42 20.5t70.5 11.5l125 13v24q-5 70 -85 70h-166v91h181q69 0 116 -39q40 39 93 39h67 q76 0 122.5 -33.5t46.5 -101.5zM233 91q39 0 55 19.5t18 58.5v12v31l-44 -6l-60 -7q-39 -6 -51.5 -15t-12.5 -37q0 -33 11 -44.5t50 -11.5h34zM579 300v53q0 21 -20 32.5t-54 11.5h-25q-71 0 -74 -68v-29h173z" />
<glyph unicode="&#xe7;" horiz-adv-x="488" d="M339 163h102q-14 -88 -57.5 -125.5t-85.5 -37.5h-68q-78 0 -124 45.5t-46 126.5v147q0 48 15 83.5t38.5 52.5t45 24.5t40.5 7.5h68q156 0 174 -162h-100q-18 71 -81 71h-26q-41 0 -57.5 -19.5t-16.5 -57.5v-148q0 -80 85 -80h19q62 0 75 72zM316 -126q15 40 -10.5 65 t-49.5 24q14 25 24 37h-77q-4 -5 -9 -13t-13 -25t-5 -25q6 -15 46 -15q9 0 13.5 -1t8.5 -5.5t4 -13.5q-1 -12 -9 -17t-19 -4.5t-22.5 3t-19.5 5.5l-7 3l-21 -51q5 -2 14.5 -5t34.5 -7.5t45.5 -3.5t41.5 13t30 36z" />
<glyph unicode="&#xe8;" horiz-adv-x="505" d="M444 353v-100q0 -21 -16 -35t-36 -14h-232v-33q0 -80 85 -80h183v-91h-198q-78 0 -124 45.5t-46 126.5v147q0 48 15 83.5t38.5 52.5t45 24.5t41.5 7.5h75q75 0 122 -33t47 -101zM341 300v53q0 43 -74 43h-34q-41 0 -57 -19.5t-16 -57.5v-19h181zM118 645l105 66l163 -154 l-87 -53z" />
<glyph unicode="&#xe9;" horiz-adv-x="505" d="M444 353v-100q0 -21 -16 -35t-36 -14h-232v-33q0 -80 85 -80h183v-91h-198q-78 0 -124 45.5t-46 126.5v147q0 48 15 83.5t38.5 52.5t45 24.5t41.5 7.5h75q75 0 122 -33t47 -101zM341 300v53q0 43 -74 43h-34q-41 0 -57 -19.5t-16 -57.5v-19h181zM282 733l102 -69 l-176 -144l-88 54z" />
<glyph unicode="&#xea;" horiz-adv-x="505" d="M444 353v-100q0 -21 -16 -35t-36 -14h-232v-33q0 -80 85 -80h183v-91h-198q-78 0 -124 45.5t-46 126.5v147q0 48 15 83.5t38.5 52.5t45 24.5t41.5 7.5h75q75 0 122 -33t47 -101zM341 300v53q0 43 -74 43h-34q-41 0 -57 -19.5t-16 -57.5v-19h181zM419 510h-104 q-1 4 -3.5 10t-9 21.5t-13.5 27.5t-16.5 22t-17.5 10q-13 0 -29.5 -22.5t-26.5 -45.5l-10 -23h-104q3 7 9 19.5t25 43.5t38 55t46 43.5t52 19.5t51 -18.5t45.5 -45.5t35 -53.5t23.5 -45.5z" />
<glyph unicode="&#xeb;" horiz-adv-x="505" d="M444 353v-100q0 -21 -16 -35t-36 -14h-232v-33q0 -80 85 -80h183v-91h-198q-78 0 -124 45.5t-46 126.5v147q0 48 15 83.5t38.5 52.5t45 24.5t41.5 7.5h75q75 0 122 -33t47 -101zM341 300v53q0 43 -74 43h-34q-41 0 -57 -19.5t-16 -57.5v-19h181zM82 672h121v-120h-121 v120zM302 672h121v-120h-121v120z" />
<glyph unicode="&#xec;" horiz-adv-x="222" d="M184 427v-427h-98l-1 397h-69v91h115q53 0 53 -61zM-23 645l105 66l163 -154l-87 -53z" />
<glyph unicode="&#xed;" horiz-adv-x="222" d="M184 427v-427h-98l-1 397h-69v91h115q53 0 53 -61zM141 733l102 -69l-176 -144l-88 54z" />
<glyph unicode="&#xee;" horiz-adv-x="222" d="M184 427v-427h-98l-1 397h-69v91h115q53 0 53 -61zM278 510h-104q-1 4 -3.5 10t-9 21.5t-13.5 27.5t-16.5 22t-17.5 10q-13 0 -29.5 -22.5t-26.5 -45.5l-10 -23h-104q3 7 9 19.5t25 43.5t38 55t46 43.5t52 19.5t51 -18.5t45.5 -45.5t35 -53.5t24.5 -45.5z" />
<glyph unicode="&#xef;" horiz-adv-x="222" d="M184 427v-427h-98l-1 397h-69v91h115q53 0 53 -61zM-59 672h121v-120h-121v120zM161 672h121v-120h-121v120z" />
<glyph unicode="&#xf1;" horiz-adv-x="536" d="M471 0v316q0 74 -35.5 122.5t-104.5 48.5h-67q-54 0 -84 -16q-16 17 -41 17h-78v-91h38v-397h99v328q0 35 16 51.5t58 16.5h26q40 0 56 -19.5t16 -57.5v-319h101zM377 652h56q-4 -64 -30 -91q-38 -38 -108 -11q-20 8 -58 24q-40 18 -57 16q-10 -1 -17 -15.5t-7 -34.5h-50 q-1 1 -1 10t2.5 22t4.5 20q10 30 31 49.5t50 18.5q19 0 38.5 -6.5t43.5 -18t36 -15.5q37 -15 53 -4q13 9 13 36z" />
<glyph unicode="&#xf2;" horiz-adv-x="500" d="M300 487q19 0 40.5 -7.5t45 -24.5t39 -52.5t15.5 -83.5v-147q0 -81 -46.5 -126.5t-124.5 -45.5h-67q-19 0 -40.5 7.5t-45.5 24.5t-39 53t-15 84v162q0 156 171 156h67zM339 171v148q0 38 -16 57.5t-56 19.5h-26q-78 0 -78 -80v-147q0 -39 16 -58.5t57 -19.5h18 q85 0 85 80zM116 645l105 66l163 -154l-87 -53z" />
<glyph unicode="&#xf3;" horiz-adv-x="500" d="M300 487q19 0 40.5 -7.5t45 -24.5t39 -52.5t15.5 -83.5v-147q0 -81 -46.5 -126.5t-124.5 -45.5h-67q-19 0 -40.5 7.5t-45.5 24.5t-39 53t-15 84v162q0 156 171 156h67zM339 171v148q0 38 -16 57.5t-56 19.5h-26q-78 0 -78 -80v-147q0 -39 16 -58.5t57 -19.5h18 q85 0 85 80zM280 733l102 -69l-176 -144l-88 54z" />
<glyph unicode="&#xf4;" horiz-adv-x="500" d="M300 487q19 0 40.5 -7.5t45 -24.5t39 -52.5t15.5 -83.5v-147q0 -81 -46.5 -126.5t-124.5 -45.5h-67q-19 0 -40.5 7.5t-45.5 24.5t-39 53t-15 84v162q0 156 171 156h67zM339 171v148q0 38 -16 57.5t-56 19.5h-26q-78 0 -78 -80v-147q0 -39 16 -58.5t57 -19.5h18 q85 0 85 80zM417 510h-104q-1 4 -3.5 10t-9 21.5t-13.5 27.5t-16.5 22t-17.5 10q-13 0 -29.5 -22.5t-26.5 -45.5l-10 -23h-104q3 7 9 19.5t25 43.5t38 55t46 43.5t52 19.5t51 -18.5t45.5 -45.5t35 -53.5t23.5 -45.5z" />
<glyph unicode="&#xf5;" horiz-adv-x="500" d="M300 487q19 0 40.5 -7.5t45 -24.5t39 -52.5t15.5 -83.5v-147q0 -81 -46.5 -126.5t-124.5 -45.5h-67q-19 0 -40.5 7.5t-45.5 24.5t-39 53t-15 84v162q0 156 171 156h67zM339 171v148q0 38 -16 57.5t-56 19.5h-26q-78 0 -78 -80v-147q0 -39 16 -58.5t57 -19.5h18 q85 0 85 80zM359 664h56q-4 -64 -30 -91q-38 -38 -108 -11q-20 8 -58 24q-40 18 -57 16q-10 -1 -17 -15.5t-7 -34.5h-50q-1 1 -1 10t2.5 22t4.5 20q10 30 31 49.5t50 18.5q19 0 38.5 -6.5t43.5 -18t36 -15.5q37 -15 53 -4q13 9 13 36z" />
<glyph unicode="&#xf6;" horiz-adv-x="500" d="M300 487q19 0 40.5 -7.5t45 -24.5t39 -52.5t15.5 -83.5v-147q0 -81 -46.5 -126.5t-124.5 -45.5h-67q-19 0 -40.5 7.5t-45.5 24.5t-39 53t-15 84v162q0 156 171 156h67zM339 171v148q0 38 -16 57.5t-56 19.5h-26q-78 0 -78 -80v-147q0 -39 16 -58.5t57 -19.5h18 q85 0 85 80zM79 672h121v-120h-121v120zM299 672h121v-120h-121v120z" />
<glyph unicode="&#xf7;" horiz-adv-x="317" d="M15 188h289v101h-289v-101zM95 0v119h121v-119h-121zM95 360v119h121v-119h-121z" />
<glyph unicode="&#xf8;" horiz-adv-x="433" d="M371 550l-32 -85q67 -40 67 -146v-147q0 -81 -46 -126.5t-124 -45.5h-59q-2 -6 -6 -19t-7.5 -22.5t-5.5 -15.5h-90l26 79q-67 44 -67 147v162q0 157 172 157h53l5 14v-1q11 34 17 49h97zM129 169q0 -20 3 -35q82 244 89 263h-15q-77 0 -77 -81v-147zM305 171v148 q0 20 -3 35q-8 -23 -23 -65t-21 -60l-49 -138h11q85 0 85 80z" />
<glyph unicode="&#xf9;" horiz-adv-x="532" d="M77 171v317h102v-319q0 -39 16 -58.5t56 -19.5h27q74 0 74 51v346h98v-397h32v-91h-71q-25 0 -42 17q-33 -16 -83 -16h-69q-67 0 -103.5 48.5t-36.5 121.5zM132 695l105 66l163 -154l-87 -53z" />
<glyph unicode="&#xfa;" horiz-adv-x="532" d="M77 488v-317q0 -73 36.5 -121.5t103.5 -48.5h69q50 0 83 16q17 -17 42 -17h71v91h-32v397h-98v-346q0 -51 -74 -51h-27q-40 0 -56 19.5t-16 58.5v319h-102zM296 753l102 -69l-176 -144l-88 54z" />
<glyph unicode="&#xfb;" horiz-adv-x="532" d="M77 171v317h102v-319q0 -39 16 -58.5t56 -19.5h27q74 0 74 51v346h98v-397h32v-91h-71q-25 0 -42 17q-33 -16 -83 -16h-69q-67 0 -103.5 48.5t-36.5 121.5zM433 560h-104q-1 4 -3.5 10t-9 21.5t-13.5 27.5t-16.5 22t-17.5 10q-13 0 -29.5 -22.5t-26.5 -45.5l-10 -23h-104 q3 7 9 19.5t25 43.5t38 55t46 43.5t52 19.5t51 -18.5t45.5 -45.5t35 -53.5t23.5 -45.5z" />
<glyph unicode="&#xfc;" horiz-adv-x="532" d="M77 488v-317q0 -73 36.5 -121.5t103.5 -48.5h69q50 0 83 16q17 -17 42 -17h71v91h-32v397h-98v-346q0 -51 -74 -51h-27q-40 0 -56 19.5t-16 58.5v319h-102zM95 672h121v-120h-121v120zM315 672h121v-120h-121v120z" />
<glyph unicode="&#xfd;" horiz-adv-x="498" d="M350 488h103q-223 -604 -227 -615q-18 -37 -42 -49.5t-61 -3.5l1 -1q-23 5 -48 15.5t-38 18.5l-13 8l44 85q31 -26 57 -32q9 -2 17 12l3 6v-1l43 118q-23 63 -166 439h102l112 -306q16 42 54.5 148t58.5 158zM279 733l102 -69l-176 -144l-88 54z" />
<glyph unicode="&#xff;" horiz-adv-x="498" d="M350 488h103q-223 -604 -227 -615q-18 -37 -42 -49.5t-61 -3.5l1 -1q-23 5 -48 15.5t-38 18.5l-13 8l44 85q31 -26 57 -32q9 -2 17 12l3 6v-1l43 118q-23 63 -166 439h102l112 -306q16 42 54.5 148t58.5 158zM78 672h121v-120h-121v120zM298 672h121v-120h-121v120z" />
<glyph unicode="&#x131;" horiz-adv-x="222" d="M184 427v-427h-98l-1 397h-69v91h115q53 0 53 -61z" />
<glyph unicode="&#x152;" horiz-adv-x="880" d="M847 599h-322v-206h267v-92h-267v-209h322v-92h-376q-29 0 -39 17q-29 -17 -82 -17h-167q-16 0 -33 4t-37.5 16t-36.5 30.5t-27 50.5t-11 72v341q0 84 47.5 130.5t128.5 46.5h167q32 0 58 -15q16 15 44 15h364v-92zM422 176v325q0 98 -76 98h-117q-43 0 -65.5 -22.5 t-22.5 -61.5v-342q0 -40 17 -60.5t60 -20.5h116q44 0 66 22.5t22 61.5z" />
<glyph unicode="&#x153;" horiz-adv-x="736" d="M699 354v-103q-2 -19 -16.5 -32.5t-36.5 -14.5h-230v-36q2 -77 84 -77h183v-91h-198q-72 0 -120 43q-42 -43 -120 -43h-68q-19 0 -40.5 7.5t-45 24.5t-39 53t-15.5 84v162q0 157 171 157h67q49 0 91 -38q41 38 89 38h75q76 0 122.5 -33.5t46.5 -100.5zM230 91q82 0 84 77 v157q-1 36 -17 54t-55 18h-27q-77 0 -77 -81v-147q0 -39 16 -58.5t57 -19.5h19zM596 301v53q0 20 -19.5 31.5t-54.5 11.5h-33q-40 0 -56 -18t-17 -54v-24h180z" />
<glyph unicode="&#x160;" horiz-adv-x="581" d="M379 396q23 0 46 -7.5t47 -25.5t38.5 -54t14.5 -87v-44q0 -85 -48 -131.5t-129 -46.5h-143q-20 0 -42 9t-46.5 29t-40.5 62.5t-16 100.5h103q0 -53 17 -80.5t60 -27.5h93q88 0 88 84v45q0 40 -15.5 60.5t-57.5 20.5h-143q-23 0 -46 7.5t-46.5 25.5t-38 54t-14.5 87v37 q0 84 47.5 130.5t128.5 46.5h143q20 0 42.5 -8.5t47 -29t40.5 -63t16 -100.5h-104q0 54 -17 82t-60 28h-92q-89 0 -89 -85v-38q0 -81 77 -81h139zM123 949h104q1 -4 3.5 -10t9 -21.5t13.5 -27.5t16.5 -22t17.5 -10q13 0 29.5 23t26.5 45l10 23h104q-3 -7 -9 -19.5t-25 -43.5 t-38 -55t-46 -43.5t-52 -19.5t-51 18.5t-45.5 45t-35 53.5t-23.5 45z" />
<glyph unicode="&#x161;" horiz-adv-x="486" d="M294 289q23 0 35.5 -1t34 -8t33 -20t21 -40.5t9.5 -67.5v-13q0 -80 -42 -109.5t-128 -29.5h-57q-1 0 -18 -0.5t-23 0t-22.5 3.5t-24 8.5t-20 17t-18 27t-10.5 39.5t-5 55h102q0 -42 11 -50.5t52 -8.5h10h7q48 0 67 8.5t19 38.5v14q0 29 -13 37.5t-57 8.5h-69 q-28 -1 -44 1t-39 12.5t-34.5 40t-11.5 76.5v11q0 81 44 115t127 34h57q24 0 41.5 -3.5t43.5 -16.5t40.5 -46.5t14.5 -85.5h-100q0 43 -11.5 51.5t-52.5 8.5h-10h-8q-45 0 -64.5 -12t-19.5 -44v-12q0 -27 13 -33t60 -6h60zM76 691h104q1 -4 3.5 -10t9 -21.5t13.5 -27.5 t16.5 -22t17.5 -10q13 0 29.5 23t26.5 45l10 23h104q-3 -7 -9 -19.5t-25 -43.5t-38 -55t-46 -43.5t-52 -19.5t-51 18.5t-45.5 45t-35 53.5t-24.5 45z" />
<glyph unicode="&#x178;" horiz-adv-x="563" d="M539 691l-207 -409v-282h-102v283q-141 282 -205 408h113l143 -286l141 286h117zM111 871h121v-120h-121v120zM331 871h121v-120h-121v120z" />
<glyph unicode="&#x17d;" horiz-adv-x="597" d="M426 167h104v-113q0 -28 -12.5 -41t-40.5 -13h-401v53q0 36 17 60v-1l299 488h-220v-75h-104v113q0 28 12.5 40.5t40.5 12.5h400v-49q0 -25 -18 -55l-304 -494h227v74zM131 974h104q1 -4 3.5 -10t9 -21.5t13.5 -27.5t16.5 -22t17.5 -10q13 0 29.5 22.5t26.5 45.5l10 23 h104q-3 -7 -9 -19.5t-25 -43.5t-38 -55t-46 -43.5t-52 -19.5t-51 18.5t-45.5 45.5t-35 53.5t-23.5 45.5z" />
<glyph unicode="&#x17e;" horiz-adv-x="490" d="M422 435q0 -11 -13 -35l-5 -6l-210 -303h223v-91h-351v47q0 28 11 43l216 306h-211v92h340v-53zM78 691h104q1 -4 3.5 -10t9 -21.5t13.5 -27.5t16.5 -22t17.5 -10q13 0 29.5 23t26.5 45l10 23h104q-3 -7 -9 -19.5t-25 -43.5t-38 -55t-46 -43.5t-52 -19.5t-51 18.5 t-45.5 45t-35 53.5t-24.5 45z" />
<glyph unicode="&#x192;" horiz-adv-x="347" d="M282 524q-36 0 -46 -13t-10 -55h91v-89h-91v-257q0 -86 -34.5 -129.5t-112.5 -43.5h-62v91h47q38 0 49.5 19.5t11.5 61.5v258h-74v89h74q1 55 12.5 89.5t35.5 48.5t43.5 17.5t54.5 3.5h62v-91h-51z" />
<glyph unicode="&#x2c6;" horiz-adv-x="375" d="M354 510h-104q-1 4 -3.5 10t-9 21.5t-13.5 27.5t-16.5 22t-17.5 10q-13 0 -29.5 -22.5t-26.5 -45.5l-10 -23h-104q3 7 9 19.5t25 43.5t38 55t46 43.5t52 19.5t51 -18.5t45.5 -45.5t35 -53.5t24.5 -45.5z" />
<glyph unicode="&#x2c7;" horiz-adv-x="373" d="M20 691h104q1 -4 3.5 -10t9 -21.5t13.5 -27.5t16.5 -22t17.5 -10q13 0 29.5 23t26.5 45l10 23h104q-3 -7 -9 -19.5t-25 -43.5t-38 -55t-46 -43.5t-52 -19.5t-51 18.5t-45.5 45t-35 53.5t-24.5 45z" />
<glyph unicode="&#x2d8;" horiz-adv-x="373" d="M20 691h104q1 -4 3.5 -10t9 -21.5t13.5 -27.5t16.5 -22t17.5 -10q13 0 29.5 23t26.5 45l10 23h104q-3 -7 -9 -19.5t-25 -43.5t-38 -55t-46 -43.5t-52 -19.5t-51 18.5t-45.5 45t-35 53.5t-24.5 45z" />
<glyph unicode="&#x2d9;" horiz-adv-x="200" d="M161 663v-126h-121v126h121z" />
<glyph unicode="&#x2da;" horiz-adv-x="281" d="M140 694q47 0 80.5 -33t33.5 -80q0 -48 -33.5 -81t-80.5 -33t-80 33t-33 81q0 47 33 80t80 33zM140 542q16 0 27 11.5t11 27.5q0 15 -11 26.5t-27 11.5t-27.5 -11.5t-11.5 -26.5q0 -16 11.5 -27.5t27.5 -11.5z" />
<glyph unicode="&#x2db;" horiz-adv-x="257" d="M219 0l-29 -20q-28 -20 -48 -38.5t-24 -34.5q-4 -21 6 -26.5t29 3t27.5 13.5t16.5 10l54 -27q-27 -36 -96.5 -53.5t-106.5 15.5q-26 34 0.5 85t64.5 73h106z" />
<glyph unicode="&#x2dc;" horiz-adv-x="388" d="M304 547h56q-4 -64 -30 -91q-38 -38 -108 -11q-20 8 -58 24q-40 18 -57 16q-10 -1 -17 -15.5t-7 -34.5h-50q-1 1 -1 10t2.5 22t4.5 20q10 30 31 49.5t50 18.5q19 0 38.5 -6.5t43.5 -18t36 -15.5q37 -15 53 -4q13 9 13 36z" />
<glyph unicode="&#x2dd;" horiz-adv-x="407" d="M205 692l-73 -217h-100l49 217h124zM258 692h122l-74 -217h-102z" />
<glyph unicode="&#x394;" horiz-adv-x="496" d="M300 558l180 -558h-464l179 555q2 5 6.5 13t18.5 21t28 13t27 -11t19 -22zM141 91h214q-31 99 -65 202l-42 135z" />
<glyph unicode="&#x3bc;" horiz-adv-x="455" d="M435 171q0 -74 -36 -122.5t-104 -48.5h-67q-40 0 -66 9v-95q0 -30 -20.5 -46t-39.5 -16h-66v91h26v545h100v-346q0 -51 73 -51h27q40 0 56.5 20t16.5 58v319h100v-317z" />
<glyph unicode="&#x3c0;" horiz-adv-x="550" d="M30 487h491v-91h-78v-396h-100v396h-136v-396h-102v396h-75v91z" />
<glyph unicode="&#x5d0;" horiz-adv-x="530" d="M401 171l96 -122l-77 -65l-219 279l-35 -31v-232h-102v230q0 46 33 72l46 39l-85 107l85 50l192 -252q17 10 26 25q8 13 8 30v94h-69v92h129q40 0 40 -42v-140q0 -31 -4.5 -45t-18.5 -36q-12 -17 -21 -28t-13 -14.5t-7 -6t-4 -4.5z" />
<glyph unicode="&#x5d1;" horiz-adv-x="513" d="M399 91h59v-91h-390v91h231v305h-231v91h276q55 0 55 -56v-340z" />
<glyph unicode="&#x5d2;" horiz-adv-x="418" d="M289 0l-30 128q-42 -20 -52 -25q-15 -12 -18 -17l-49 -86h-109q80 136 89 151q22 35 55 45l62 25q-7 99 -14 174h-91v92h135q23 0 35 -14t14 -33l18 -232l54 -208h-99z" />
<glyph unicode="&#x5d3;" horiz-adv-x="438" d="M41 487h382v-91h-72v-396h-100v396h-210v91z" />
<glyph unicode="&#x5d4;" horiz-adv-x="518" d="M405 487q26 0 40 -17t14 -39v-431h-99v396h-302v91h347zM65 281h100v-281h-100v281z" />
<glyph unicode="&#x5d5;" horiz-adv-x="256" d="M154 487q26 0 40.5 -18t14.5 -46v-423h-100v396h-57v91h102z" />
<glyph unicode="&#x5d6;" horiz-adv-x="313" d="M87 306q-1 45 13 90h-61v91h239v-91h-80q-5 -21 -10 -40t-6 -25l26 -331h-95q-25 282 -26 306z" />
<glyph unicode="&#x5d7;" horiz-adv-x="575" d="M40 487h485v-91h-51v-396h-100v396h-183v-396h-101v396h-50v91z" />
<glyph unicode="&#x5d8;" horiz-adv-x="544" d="M434 487q22 0 37 -15.5t15 -35.5v-253q0 -87 -48.5 -135t-131.5 -48h-204q-23 0 -37 13.5t-14 35.5v438h104v-395h134q47 0 71 24t24 66v213h-40l-67 -107l-72 55q48 89 64 110q25 32 71 34h94z" />
<glyph unicode="&#x5d9;" horiz-adv-x="272" d="M228 424v-223h-101v195h-77v91h117q61 0 61 -63z" />
<glyph unicode="&#x5da;" horiz-adv-x="377" d="M279 487q28 0 41.5 -15.5t13.5 -40.5v-559h-99v524h-210v91h254z" />
<glyph unicode="&#x5db;" horiz-adv-x="466" d="M404 433v-300q0 -64 -31 -98.5t-91 -34.5h-213v91h198q36 0 36 41v264h-234v91h285q22 0 36 -16.5t14 -37.5z" />
<glyph unicode="&#x5dc;" horiz-adv-x="416" d="M396 351q0 -34 -22 -71l-171 -280h-112q189 305 191 310q13 20 13 42v44h-214q-22 0 -35 13.5t-13 37.5v171h102v-131h215q22 0 34 -15t12 -35v-86z" />
<glyph unicode="&#x5dd;" horiz-adv-x="536" d="M418 487q23 0 38.5 -18t15.5 -41v-428h-352q-22 0 -35.5 15t-13.5 37v435h347zM172 91h201v305h-201v-305z" />
<glyph unicode="&#x5de;" horiz-adv-x="547" d="M326 487q78 0 124 -45.5t46 -126.5v-181q0 -71 -29.5 -102.5t-91.5 -31.5h-99v91h90q17 0 23 6.5t6 23.5v195q0 80 -84 80h-73l-63 -396h-103l68 396h-76v91h262z" />
<glyph unicode="&#x5df;" horiz-adv-x="254" d="M121 487q41 0 53 -16.5t12 -51.5v-547h-99v524h-57v91h91z" />
<glyph unicode="&#x5e0;" horiz-adv-x="337" d="M270 434v-387q0 -47 -44 -47h-172v91h115v305h-83v91h135q25 0 37 -15t12 -38z" />
<glyph unicode="&#x5e1;" horiz-adv-x="545" d="M379 487q62 0 91 -31.5t29 -102.5v-182q0 -81 -46 -126t-124 -45h-86q-19 0 -40 7.5t-44.5 24.5t-39 52.5t-15.5 83.5v228h-63v91h338zM399 170v197q0 16 -6.5 22.5t-23.5 6.5h-164v-228q0 -39 16 -58t57 -19h36q85 0 85 79z" />
<glyph unicode="&#x5e2;" horiz-adv-x="546" d="M490 420l-14 -133l-19 -156q-15 -131 -121 -131h-271v91h127l-28 140l-34 165h-67v91h108q36 0 52 -46l76 -350h22q14 0 21 5t9 12t6 26l31 262h-77v91h131q24 0 37 -19t11 -48z" />
<glyph unicode="&#x5e3;" horiz-adv-x="435" d="M256 487q58 0 89.5 -36t31.5 -99v-480h-101v480q0 44 -35 44h-123v-123h86v-91h-138q-17 0 -32 17t-15 37v190q0 22 20 41.5t36 19.5h181z" />
<glyph unicode="&#x5e4;" horiz-adv-x="504" d="M324 487q59 0 89.5 -35.5t30.5 -99.5v-219q0 -133 -121 -133h-253v91h238q36 0 36 41v220q0 44 -35 44h-130v-115h92v-88h-138q-27 0 -40.5 14t-13.5 36v187q0 23 16 40t43 17h186z" />
<glyph unicode="&#x5e5;" horiz-adv-x="464" d="M384 78q17 -29 17 -65v-141h-101v158l-289 457h112l139 -213l28 28l31 93h-59v92h128q23 0 35 -17.5t7 -43.5q-1 -4 -46 -139q-10 -29 -32 -56l-38 -42z" />
<glyph unicode="&#x5e6;" horiz-adv-x="536" d="M390 196l78 -118v-36q0 -18 -12.5 -30t-33.5 -12h-334v91h260l-39 62q-24 37 -82 117t-86 126h-60v91h79q35 0 57 -31l120 -179l19 14q3 9 29 105h-60v91h120q64 0 47 -66l-44 -156q-13 -35 -25 -44z" />
<glyph unicode="&#x5e7;" horiz-adv-x="493" d="M147 278h-103v-343q0 -34 17.5 -48.5t40.5 -14.5h82v91h-37v315zM468 373q0 -19 -12 -51l-146 -322h-105l159 359v36h-329v92h384q49 0 49 -52v-62z" />
<glyph unicode="&#x5e8;" horiz-adv-x="426" d="M278 0v396h-236v91h288q48 0 48 -53v-434h-100z" />
<glyph unicode="&#x5e9;" horiz-adv-x="612" d="M455 487h102l-8 -234q0 -135 -64.5 -194t-192.5 -59h-129q-24 0 -38.5 16.5t-18.5 41.5l-53 429h107l44 -396h36l12 58q2 11 6 34t7 34v270h99v-254q0 -18 -2 -36q-3 -7 -3 -17l-17 -84q52 11 79.5 46.5t27.5 110.5z" />
<glyph unicode="&#x5ea;" horiz-adv-x="585" d="M405 487q122 0 122 -134v-353h-101v354q0 42 -37 42h-141v-349q0 -25 -9.5 -36t-32.5 -11h-142v91h84v305h-61v91h318z" />
<glyph unicode="&#x2013;" horiz-adv-x="449" d="M409 188h-369v101h369v-101z" />
<glyph unicode="&#x2014;" horiz-adv-x="609" d="M569 188h-529v101h529v-101z" />
<glyph unicode="&#x2018;" horiz-adv-x="182" d="M95 707l77 -63l-47 -63v-164h-95v162q0 29 12 49z" />
<glyph unicode="&#x2019;" horiz-adv-x="182" d="M87 400l-77 64l48 63v164h95v-162q0 -30 -13 -51z" />
<glyph unicode="&#x201a;" horiz-adv-x="214" d="M75 118h123l-75 -218h-100z" />
<glyph unicode="&#x201c;" horiz-adv-x="407" d="M202 692h124l49 -217h-100zM149 692l54 -217h-102l-74 217h122z" />
<glyph unicode="&#x201d;" horiz-adv-x="407" d="M205 692l-73 -217h-100l49 217h124zM258 692h122l-74 -217h-102z" />
<glyph unicode="&#x201e;" horiz-adv-x="416" d="M83 118h123l-75 -218h-100zM266 118h123l-75 -218h-100z" />
<glyph unicode="&#x2020;" horiz-adv-x="315" d="M306 414h-98v-536h-100v536h-99v101h99v177h100v-177h98v-101z" />
<glyph unicode="&#x2021;" horiz-adv-x="259" d="M245 358h-67v-263h67v-95h-67v-134h-96v134h-67v95h67v263h-67v96h67v155h96v-155h67v-96z" />
<glyph unicode="&#x2022;" horiz-adv-x="267" d="M27 306q0 44 31.5 75t74.5 31q44 0 75.5 -31t31.5 -75t-31.5 -75t-75.5 -31q-43 0 -74.5 31t-31.5 75z" />
<glyph unicode="&#x2026;" horiz-adv-x="723" d="M40 0v119h121v-119h-121zM301 0v119h121v-119h-121zM562 0v119h121v-119h-121z" />
<glyph unicode="&#x2039;" horiz-adv-x="431" d="M326 -1l-323 230l323 229l74 -73l-223 -155l224 -156z" />
<glyph unicode="&#x203a;" horiz-adv-x="430" d="M104 457l323 -230l-323 -229l-74 73l223 155l-224 156z" />
<glyph unicode="&#x2044;" horiz-adv-x="340" d="M6 0l229 670h99l-232 -670h-96z" />
<glyph unicode="&#x20aa;" horiz-adv-x="729" d="M162 392v-392h-103v392h-57v91h390q63 0 95.5 -36t32.5 -103v-165h-103v166q0 47 -41 47h-214zM721 483l-6 -213q0 -270 -236 -270h-212l-41 293h106l33 -203h98q27 0 48.5 5.5t46.5 22t39 55t14 96.5l6 214h104z" />
<glyph unicode="&#x20ac;" horiz-adv-x="599" d="M539 223l18 -20v-15q0 -30 -0.5 -44t-3.5 -38t-9 -36t-18 -28t-30.5 -23.5t-45.5 -13t-63 -5.5h-163q-19 0 -40.5 7.5t-45.5 24.5t-39 52.5t-15 83.5v56h-57v91h57v43h-57v91h57v48q0 82 46 127.5t124 45.5h155q87 0 117.5 -49.5t30.5 -169.5h-101q0 32 -0.5 46.5 t-4 34.5t-11 28t-21.5 14.5t-36 6.5h-114q-42 0 -63.5 -22t-21.5 -61v-49h240v-91h-240v-43h240v-91h-240v-56q0 -38 16.5 -57.5t56.5 -19.5h114q32 0 49.5 4.5t25 19t9 26t1.5 40.5v42h83z" />
<glyph unicode="&#x2122;" horiz-adv-x="855" d="M346 691q26 0 39.5 -14t13.5 -39v-88h-83v50h-56v-241h-93v241h-55v-50h-83v88q0 21 12.5 37t39.5 16h265zM765 691q50 0 50 -53v-279h-94v132l-34 -100q-12 -33 -43 -35h-28q-24 3 -40 33l-36 105v-135h-92v279q0 53 48 53h47l89 -231l87 231h46z" />
<glyph unicode="&#x220f;" horiz-adv-x="483" d="M391 641q26 0 39.5 -17t13.5 -38v-662h-100v626h-204v-626h-100v662q0 22 13.5 38.5t39.5 16.5h298z" />
<glyph unicode="&#x2211;" horiz-adv-x="468" d="M441 606v-87h-276l104 -248l-106 -248h278v-86h-347q-69 0 -43 64l118 270q-8 18 -36.5 84t-53 123t-27.5 63q-13 31 -2 48t44 17h347z" />
<glyph unicode="&#x2212;" horiz-adv-x="499" d="M459 188h-419v101h419v-101z" />
<glyph unicode="&#x221a;" horiz-adv-x="493" d="M381 691h99l-237 -691h-74l-167 298h103l90 -152z" />
<glyph unicode="&#x221e;" horiz-adv-x="510" d="M272 167q-18 16 -29 32q-13 -16 -31 -29q-35 -19 -58 -19q-55 0 -91 43q-33 39 -33 94q0 57 35 96q30 35 79 35q35 0 63 -21q16 -10 30 -29q14 21 31 36h-1q33 29 78 30q58 -1 96 -46q36 -43 36 -104q0 -67 -36 -105q-34 -43 -89 -43q-45 0 -80 30zM404 285q0 31 -15 46 q-15 17 -39 17q-29 0 -44 -17q-15 -15 -28 -53q12 -31 25 -41q17 -14 40 -14h4q19 0 44 19q13 14 13 43zM184 249l1 1q13 13 21 41q-6 17 -21 32q-16 14 -34 14q-20 0 -35 -13q-14 -10 -14 -38q0 -26 14 -39q13 -13 34 -13t34 15z" />
<glyph unicode="&#x222b;" horiz-adv-x="342" d="M268 690h62v-91h-47q-37 0 -48.5 -19.5t-11.5 -61.5v-467q0 -171 -147 -171h-63v90h48q37 0 48.5 19.5t11.5 61.5v466q0 86 34.5 129.5t112.5 43.5z" />
<glyph unicode="&#x2248;" horiz-adv-x="389" d="M304 417h56q-4 -64 -30 -91q-38 -38 -108 -11q-20 8 -58 24q-40 18 -57 16q-10 -1 -17 -15.5t-7 -34.5h-50q-1 1 -1 10t2.5 22t4.5 20q10 30 31 49.5t50 18.5q19 0 38.5 -6.5t43.5 -18t36 -15.5q37 -15 53 -4q13 9 13 36zM304 237h56q-4 -64 -30 -91q-38 -38 -108 -11 q-20 8 -58 24q-40 18 -57 16q-10 -1 -17 -15.5t-7 -34.5h-50q-1 1 -1 10t2.5 22t4.5 20q10 30 31 49.5t50 18.5q19 0 38.5 -6.5t43.5 -18t36 -15.5q37 -15 53 -4q13 9 13 36z" />
<glyph unicode="&#x2260;" horiz-adv-x="379" d="M363 258h-117l-22 -51h134v-80h-161l-28 -74h-110l30 74h-68v80h95l21 51h-116v79h143l28 71h108l-27 -71h90v-79z" />
<glyph unicode="&#x2264;" horiz-adv-x="493" d="M13 0h448v101h-448v-101zM365 155l-323 230l323 229l74 -73l-223 -155l224 -156z" />
<glyph unicode="&#x2265;" horiz-adv-x="493" d="M31 0h448v101h-448v-101zM140 615l323 -230l-323 -229l-74 73l223 155l-224 156z" />
<glyph unicode="&#x25ca;" horiz-adv-x="380" d="M241 606l123 -262l-124 -256q-18 -31 -49 -31q-14 0 -26 6t-17 12l-4 6l-127 263l122 262q19 35 50 35q13 0 26 -8.5t19 -17.5zM190 186l78 158l-77 163l-79 -163z" />
<glyph unicode="&#xe000;" horiz-adv-x="490" d="M0 490h490v-490h-490v490z" />
<glyph unicode="&#xfb01;" horiz-adv-x="645" d="M269 601q-39 0 -48 -14.5t-9 -64.5v-35h98v-91h-98v-396h-101v396h-65v91h65v35q0 48 9 81t20.5 50t34 26t39 10.5t44.5 1.5h52v-90h-41zM590 692v-110h-112v110h112zM588 427v-427h-98l-1 397h-69v91h115q53 0 53 -61z" />
<glyph unicode="&#xfb02;" horiz-adv-x="666" d="M269 601q-39 0 -48 -14.5t-9 -64.5v-35h98v-91h-98v-396h-101v396h-65v91h65v35q0 48 9 81t20.5 50t34 26t39 10.5t44.5 1.5h52v-90h-41zM600 635l1 -635h-100v601h-66v90h114q31 0 41 -14.5t10 -41.5z" />
<glyph horiz-adv-x="556" />
</font>
</defs>
</svg>
